<svg width="62" height="62" viewBox="0 0 62 62" fill="none" xmlns="http://www.w3.org/2000/svg">
<path d="M48.0019 1H13.9981C6.81947 1 1 6.81947 1 13.9981V48.0019C1 55.1805 6.81947 61 13.9981 61H48.0019C55.1805 61 61 55.1805 61 48.0019V13.9981C61 6.81947 55.1805 1 48.0019 1Z" fill="#F4BAD2" stroke="#3F0F23" stroke-width="0.5" stroke-miterlimit="10"/>
<path d="M40.9597 21.8262L40.6689 22.957" stroke="#3F0F23" stroke-linecap="round" stroke-linejoin="round"/>
<path d="M41.4489 21.8262L41.1582 22.957" stroke="#3F0F23" stroke-linecap="round" stroke-linejoin="round"/>
<path d="M41.9392 21.949L41.6484 23.079" stroke="#3F0F23" stroke-linecap="round" stroke-linejoin="round"/>
<path d="M8.40955 29.6636C8.40955 29.6636 7.67504 26.3669 10.4915 24.5356L8.40955 29.6636Z" fill="white"/>
<path d="M8.40955 29.6636C8.40955 29.6636 7.67504 26.3669 10.4915 24.5356" stroke="#3F0F23" stroke-linecap="round" stroke-linejoin="round"/>
<path d="M15.8889 17.147C15.9574 17.0366 15.9651 16.8985 15.9051 16.7827C15.4336 15.8664 13.5062 11.766 16.002 10.4808C18.5131 9.18709 21.9988 10.8918 22.724 11.276C22.8117 11.3228 22.914 11.3312 23.0086 11.3005C23.9938 10.9792 29.6076 9.2216 32.3964 9.9294C32.5495 9.96851 32.7094 9.91253 32.801 9.78446C33.4101 8.93633 35.8582 5.95021 39.756 6.52765C39.756 6.52765 42.0295 6.46784 41.0197 12.8281C40.9974 12.9677 41.0551 13.108 41.1712 13.1893C41.9303 13.7222 44.7584 15.8364 45.6505 18.3402C45.7167 18.5266 45.912 18.6324 46.1035 18.581C46.8473 18.3824 48.5716 17.9491 49.0577 18.0726C49.1746 18.1025 49.2977 18.0772 49.3899 18.0005C49.7337 17.7137 50.4867 17.2106 51.4335 17.3264C51.9011 17.384 52.2926 17.7083 52.441 18.1539C52.4741 18.2536 52.5472 18.3348 52.6425 18.3793L52.8179 18.4606C53.1132 18.5979 53.3378 18.8517 53.437 19.1607L53.5093 19.387C53.5601 19.5449 53.7077 19.6523 53.8746 19.6523C54.1308 19.6523 54.3346 19.8609 54.3253 20.1162C54.2977 20.8754 53.9962 22.3646 52.1518 23.0211C52.0572 23.0548 51.9788 23.1215 51.9357 23.2113C51.3766 24.373 47.5656 32.3912 48.1978 34.0346C48.204 34.0514 48.2094 34.0668 48.2124 34.0844C48.2855 34.4947 49.2654 39.776 51.4712 40.9953C51.4989 41.0106 51.5281 41.0214 51.5588 41.0283C51.808 41.0873 53.044 41.4071 53.837 42.131C54.4146 42.6578 54.3984 43.5734 53.82 44.1003C53.7547 44.1601 53.7116 44.2406 53.6993 44.328L53.6685 44.545C53.6231 44.8594 53.4263 45.1317 53.1417 45.2743L53.0548 45.3173C52.9348 45.3771 52.8556 45.4944 52.844 45.6278L52.8402 45.67C52.7764 46.4345 52.1726 47.045 51.4066 47.1178C50.7597 47.1792 50.0614 47.1477 49.773 46.7988C49.6884 46.6968 49.5522 46.6523 49.4207 46.6692C48.2924 46.8088 43.6393 47.2842 39.1854 46.2743C39.1238 46.2605 39.0823 46.3372 39.1308 46.3786C40.649 47.7022 42.7679 48.5296 44.1677 49.199C46.6088 50.367 47.0988 51.4659 47.088 53.2833C47.0811 54.5233 45.952 55.8676 41.9411 55.3645C41.9411 55.3645 37.188 54.8155 35.1068 51.5188C35.1068 51.5188 33.457 48.9491 33.0909 47.2045C33.0425 46.9744 32.7971 46.8463 32.5787 46.9338C31.5642 47.3425 29.1361 48.3616 28.6277 48.9414C28.6201 48.9506 28.6116 48.9583 28.6024 48.9667C28.3701 49.1645 25.2706 51.7764 23.6654 51.7772H23.6639C23.5393 51.7772 23.4209 51.8332 23.3424 51.9298C22.9778 52.383 21.9065 53.6169 20.8982 53.8262C20.6374 53.8807 20.3905 53.6959 20.3529 53.4328L20.3421 53.3554C20.3129 53.1491 20.1221 53.0042 19.9145 53.0302L19.6291 53.0655C19.4392 53.0893 19.2569 52.985 19.1815 52.8094L19.0669 52.5425C18.9946 52.3738 18.8116 52.2803 18.6308 52.3201L18.4408 52.3623C18.0617 52.4467 17.6748 52.2434 17.5379 51.8807C17.2526 51.1284 17.0257 49.8148 18.2201 48.6876C18.2901 48.6216 18.3355 48.535 18.3439 48.4391C18.4524 47.2459 19.0508 39.2177 15.8851 36.5046C15.882 36.5023 15.8797 36.5 15.8766 36.4977C15.6905 36.3535 9.1615 31.3054 8.36778 30.093C8.29779 29.9864 8.18319 29.9212 8.05552 29.9158C7.52714 29.8944 6.24272 29.6152 5.68126 27.488C5.58205 27.1138 5.8274 26.7342 6.21118 26.6713C6.41423 26.6383 6.55498 26.4504 6.5296 26.2464C6.48345 25.8761 6.66496 25.5141 6.98953 25.3293L7.11643 25.2572C7.23564 25.189 7.30948 25.0624 7.30948 24.9252C7.30948 24.3393 7.74172 23.8408 8.32394 23.7634C8.93307 23.6821 9.74064 23.7273 10.5267 24.2335C10.5851 24.271 10.6513 24.294 10.7205 24.2971L13.4316 24.4144C13.3455 24.985 13.0717 21.6944 15.8897 17.1478L15.8889 17.147Z" fill="white" stroke="#3F0F23" stroke-linecap="round" stroke-linejoin="round"/>
<path d="M13.4297 24.4136C13.4297 24.4136 13.4297 32.4716 24.4503 32.2278L13.4297 24.4136Z" fill="white"/>
<path d="M13.4297 24.4136C13.4297 24.4136 13.4297 32.4716 24.4503 32.2278" stroke="#3F0F23" stroke-linecap="round" stroke-linejoin="round"/>
<path d="M45.7583 18.6753C45.7583 18.6753 48.2072 27.0999 39.1455 29.9081L45.7583 18.6753Z" fill="white"/>
<path d="M45.7583 18.6753C45.7583 18.6753 48.2072 27.0999 39.1455 29.9081" stroke="#3F0F23" stroke-linecap="round" stroke-linejoin="round"/>
<path d="M32.7705 46.826C33.375 46.4063 37.056 45.2379 39.138 46.3373L32.7705 46.826Z" fill="white"/>
<path d="M32.7705 46.826C33.375 46.4063 37.056 45.2379 39.138 46.3373" stroke="#3F0F23" stroke-linecap="round" stroke-linejoin="round"/>
<path d="M26.7695 24.9713C26.7695 24.9713 27.0395 26.7688 28.6977 26.2504C30.4436 25.7044 29.9783 24.0556 29.9783 24.0556C29.9783 24.0556 30.3205 25.6944 32.1656 25.1645C34.1161 24.6047 33.137 23.0173 33.137 23.0173" stroke="#3F0F23" stroke-linecap="round" stroke-linejoin="round"/>
<path d="M30.0429 23.6444C31.2898 23.3097 32.1294 22.4044 31.9182 21.6225C31.7071 20.8406 30.5251 20.4781 29.2782 20.8128C28.0313 21.1476 27.1917 22.0528 27.4028 22.8347C27.614 23.6167 28.796 23.9792 30.0429 23.6444Z" fill="#3F0F23"/>
<path d="M18.3281 48.5879C18.3281 48.5879 21.7568 52.0065 23.4712 51.7626L18.3281 48.5879Z" fill="white"/>
<path d="M18.3281 48.5879C18.3281 48.5879 21.7568 52.0065 23.4712 51.7626" stroke="#3F0F23" stroke-linecap="round" stroke-linejoin="round"/>
<path d="M14.6553 19.7979C14.6553 19.7979 23.0432 14.4637 27.9417 20.324L14.6553 19.7979Z" fill="white"/>
<path d="M14.6553 19.7979C14.6553 19.7979 23.0432 14.4637 27.9417 20.324" stroke="#3F0F23" stroke-linecap="round" stroke-linejoin="round"/>
<path d="M30.5137 19.7129C30.5137 19.7129 32.1619 13.2537 42.6034 15.0182L30.5137 19.7129Z" fill="white"/>
<path d="M30.5137 19.7129C30.5137 19.7129 32.1619 13.2537 42.6034 15.0182" stroke="#3F0F23" stroke-linecap="round" stroke-linejoin="round"/>
<path d="M49.1865 18.3088C49.1865 18.3088 51.8807 18.5527 52.1253 22.8264L49.1865 18.3088Z" fill="white"/>
<path d="M49.1865 18.3088C49.1865 18.3088 51.8807 18.5527 52.1253 22.8264" stroke="#3F0F23" stroke-linecap="round" stroke-linejoin="round"/>
<path d="M51.3297 41.3235C51.3297 41.3235 52.9887 44.5849 49.7715 46.1899L51.3297 41.3235Z" fill="white"/>
<path d="M51.3297 41.3235C51.3297 41.3235 52.9887 44.5849 49.7715 46.1899" stroke="#3F0F23" stroke-linecap="round" stroke-linejoin="round"/>
<path d="M18.6347 28.8987C20.1613 28.6462 21.2688 27.6605 21.1085 26.697C20.9482 25.7335 19.5807 25.1572 18.0541 25.4097C16.5276 25.6622 15.42 26.648 15.5803 27.6115C15.7406 28.5749 17.1081 29.1513 18.6347 28.8987Z" fill="#F4BAD2"/>
<path d="M42.6357 23.7728C44.1622 23.5202 45.2698 22.5345 45.1095 21.571C44.9492 20.6075 43.5817 20.0312 42.0551 20.2837C40.5285 20.5363 39.421 21.522 39.5813 22.4855C39.7416 23.4489 41.1091 24.0253 42.6357 23.7728Z" fill="#F4BAD2"/>
<path d="M22.4237 25.6421C23.8437 25.6421 24.9948 24.4943 24.9948 23.0785C24.9948 21.6626 23.8437 20.5149 22.4237 20.5149C21.0037 20.5149 19.8525 21.6626 19.8525 23.0785C19.8525 24.4943 21.0037 25.6421 22.4237 25.6421Z" fill="#3F0F23"/>
<path d="M36.5057 22.4682C37.9257 22.4682 39.0769 21.3205 39.0769 19.9046C39.0769 18.4888 37.9257 17.3411 36.5057 17.3411C35.0857 17.3411 33.9346 18.4888 33.9346 19.9046C33.9346 21.3205 35.0857 22.4682 36.5057 22.4682Z" fill="#3F0F23"/>
<path d="M19.2841 26.7104L18.9941 27.8413" stroke="#3F0F23" stroke-width="0.3" stroke-linecap="round" stroke-linejoin="round"/>
<path d="M19.7751 26.7104L19.4844 27.8413" stroke="#3F0F23" stroke-width="0.3" stroke-linecap="round" stroke-linejoin="round"/>
<path d="M20.2644 26.7144L19.9736 27.8452" stroke="#3F0F23" stroke-width="0.3" stroke-linecap="round" stroke-linejoin="round"/>
<path d="M9.06641 26.8323C9.06641 26.8323 12.2344 30.3276 15.7985 30.3046L9.06641 26.8323Z" fill="white"/>
<path d="M9.06641 26.8323C9.06641 26.8323 12.2344 30.3276 15.7985 30.3046" stroke="#3F0F23" stroke-linecap="round" stroke-linejoin="round"/>
<path d="M45.6357 25.3838C45.6357 25.3838 49.9335 23.4268 50.9872 20.0327L45.6357 25.3838Z" fill="white"/>
<path d="M45.6357 25.3838C45.6357 25.3838 49.9335 23.4268 50.9872 20.0327" stroke="#3F0F23" stroke-linecap="round" stroke-linejoin="round"/>
<path d="M41.0808 22.3147L40.79 23.4455" stroke="#3F0F23" stroke-width="0.3" stroke-linecap="round" stroke-linejoin="round"/>
<path d="M41.571 22.3147L41.2803 23.4455" stroke="#3F0F23" stroke-width="0.3" stroke-linecap="round" stroke-linejoin="round"/>
<path d="M42.0612 22.4365L41.7705 23.5673" stroke="#3F0F23" stroke-width="0.3" stroke-linecap="round" stroke-linejoin="round"/>
<path d="M19.6672 15.5633C20.5517 14.7935 20.5406 13.3379 19.6425 12.3121C18.7444 11.2864 17.2994 11.0789 16.4149 11.8488C15.5305 12.6186 15.5415 14.0742 16.4396 15.1C17.3377 16.1257 18.7828 16.3332 19.6672 15.5633Z" fill="#BBEFBE"/>
<path d="M40.4167 10.9583C40.9187 9.69207 40.4406 8.31668 39.3488 7.88633C38.2569 7.45597 36.9648 8.1336 36.4628 9.39986C35.9607 10.6661 36.4388 12.0415 37.5307 12.4719C38.6225 12.9022 39.9146 12.2246 40.4167 10.9583Z" fill="#BBEFBE"/>
<path d="M8.48084 29.7793C8.48084 29.7793 7.74633 26.4826 10.5628 24.6514" stroke="#3F0F23" stroke-linecap="round" stroke-linejoin="round"/>
</svg>
