<svg width="102" height="102" viewBox="0 0 102 102" fill="none" xmlns="http://www.w3.org/2000/svg">
<path d="M79.3364 1H22.6636C10.6991 1 1 10.6991 1 22.6636V79.3364C1 91.3009 10.6991 101 22.6636 101H79.3364C91.3009 101 101 91.3009 101 79.3364V22.6636C101 10.6991 91.3009 1 79.3364 1Z" fill="#EDCCBC" stroke="#3F0F23" stroke-width="0.5" stroke-miterlimit="10"/>
<path d="M67.5995 35.7104L67.115 37.5951" stroke="#3F0F23" stroke-linecap="round" stroke-linejoin="round"/>
<path d="M68.415 35.7104L67.9304 37.5951" stroke="#3F0F23" stroke-linecap="round" stroke-linejoin="round"/>
<path d="M69.2321 35.915L68.7476 37.7984" stroke="#3F0F23" stroke-linecap="round" stroke-linejoin="round"/>
<path d="M13.3494 48.7726C13.3494 48.7726 12.1252 43.2781 16.8194 40.2261Z" fill="white"/>
<path d="M13.3494 48.7726C13.3494 48.7726 12.1252 43.2781 16.8194 40.2261" stroke="#3F0F23" stroke-linecap="round" stroke-linejoin="round"/>
<path d="M25.815 27.9116C25.9291 27.7275 25.9419 27.4975 25.8419 27.3045C25.0561 25.7772 21.8438 18.9433 26.0034 16.8012C30.1887 14.6451 35.998 17.4862 37.2068 18.1266C37.3529 18.2045 37.5234 18.2186 37.6811 18.1675C39.3232 17.6319 48.6794 14.7026 53.3274 15.8822C53.5825 15.9474 53.8491 15.8541 54.0017 15.6407C55.0169 14.2271 59.097 9.25027 65.5935 10.2127C65.5935 10.2127 69.3826 10.113 67.6996 20.7134C67.6624 20.946 67.7585 21.1799 67.9521 21.3154C69.2173 22.2037 73.9307 25.7273 75.4176 29.9003C75.5279 30.2109 75.8534 30.3872 76.1726 30.3016C77.4122 29.9706 80.2861 29.2485 81.0962 29.4542C81.2911 29.5041 81.4962 29.4619 81.65 29.3341C82.223 28.8561 83.4779 28.0177 85.0559 28.2106C85.8352 28.3065 86.4877 28.8471 86.7351 29.5897C86.7902 29.7559 86.912 29.8913 87.071 29.9655L87.3632 30.1009C87.8555 30.3297 88.2298 30.7528 88.3951 31.2678L88.5156 31.6449C88.6002 31.9081 88.8463 32.0871 89.1245 32.0871C89.5513 32.0871 89.891 32.4347 89.8757 32.8603C89.8295 34.1256 89.327 36.6077 86.2531 37.7017C86.0955 37.7579 85.9647 37.8691 85.8929 38.0187C84.961 39.955 78.6094 53.3186 79.6631 56.0575C79.6734 56.0857 79.6824 56.1112 79.6875 56.1406C79.8093 56.8244 81.4423 65.6266 85.1187 67.6587C85.1648 67.6843 85.2136 67.7022 85.2648 67.7137C85.6802 67.8121 87.7401 68.345 89.0617 69.5516C90.0244 70.4296 89.9974 71.9556 89.0335 72.8337C88.9245 72.9334 88.8527 73.0676 88.8322 73.2133L88.781 73.575C88.7053 74.099 88.3772 74.5527 87.9029 74.7904L87.758 74.862C87.5581 74.9617 87.426 75.1572 87.4068 75.3796L87.4004 75.4499C87.294 76.7242 86.2877 77.7415 85.011 77.8629C83.933 77.9652 82.7691 77.9128 82.2884 77.3312C82.1474 77.1613 81.9205 77.0871 81.7013 77.1153C79.8208 77.3479 72.0656 78.1403 64.6423 76.457C64.5398 76.434 64.4706 76.5618 64.5513 76.6309C67.0817 78.8368 70.6132 80.2159 72.9462 81.3317C77.0148 83.2782 77.8314 85.1097 77.8134 88.1387C77.8019 90.2054 75.9201 92.4459 69.2352 91.6075C69.2352 91.6075 61.3134 90.6923 57.8447 85.1979C57.8447 85.1979 55.0951 80.915 54.4849 78.0074C54.4042 77.6239 53.9953 77.4105 53.6312 77.5562C51.9404 78.2374 47.8936 79.936 47.0463 80.9022C47.0335 80.9176 47.0194 80.9303 47.004 80.9444C46.6169 81.2741 41.451 85.6273 38.7758 85.6286H38.7732C38.5656 85.6286 38.3682 85.7219 38.2374 85.8829C37.6298 86.6383 35.8442 88.6947 34.1637 89.0436C33.7291 89.1344 33.3177 88.8263 33.2549 88.388L33.2369 88.2589C33.1882 87.9151 32.8703 87.6735 32.5242 87.717L32.0486 87.7758C31.732 87.8154 31.4282 87.6416 31.3026 87.3489L31.1116 86.9041C30.9911 86.6229 30.686 86.467 30.3848 86.5335L30.0682 86.6037C29.4362 86.7443 28.7914 86.4056 28.5633 85.8011C28.0877 84.5473 27.7095 82.358 29.7003 80.4792C29.8169 80.3693 29.8925 80.2248 29.9066 80.0651C30.0874 78.0764 31.0847 64.6961 25.8086 60.1743C25.8034 60.1704 25.7996 60.1666 25.7945 60.1628C25.4842 59.9225 14.6026 51.5088 13.2797 49.4882C13.1631 49.3105 12.9721 49.2019 12.7593 49.193C11.8786 49.1572 9.73794 48.6919 8.80219 45.1465C8.63683 44.5228 9.04574 43.8902 9.68539 43.7854C10.0238 43.7304 10.2584 43.4173 10.2161 43.0773C10.1392 42.46 10.4417 41.8568 10.9826 41.5487L11.1941 41.4286C11.3928 41.3148 11.5159 41.104 11.5159 40.8752C11.5159 39.8987 12.2363 39.068 13.2066 38.9389C14.2219 38.8034 15.5678 38.8788 16.8779 39.7224C16.9753 39.785 17.0855 39.8233 17.2009 39.8284L21.7194 40.024C21.5759 40.9749 21.1195 35.4906 25.8162 27.9129L25.815 27.9116Z" fill="white" stroke="#3F0F23" stroke-linecap="round" stroke-linejoin="round"/>
<path d="M21.7163 40.0227C21.7163 40.0227 21.7163 53.4528 40.084 53.0464Z" fill="white"/>
<path d="M21.7163 40.0227C21.7163 40.0227 21.7163 53.4528 40.084 53.0464" stroke="#3F0F23" stroke-linecap="round" stroke-linejoin="round"/>
<path d="M75.5973 30.4587C75.5973 30.4587 79.6787 44.4998 64.5759 49.1801Z" fill="white"/>
<path d="M75.5973 30.4587C75.5973 30.4587 79.6787 44.4998 64.5759 49.1801" stroke="#3F0F23" stroke-linecap="round" stroke-linejoin="round"/>
<path d="M53.9509 77.3767C54.9585 76.6773 61.0934 74.73 64.5634 76.5622Z" fill="white"/>
<path d="M53.9509 77.3767C54.9585 76.6773 61.0934 74.73 64.5634 76.5622" stroke="#3F0F23" stroke-linecap="round" stroke-linejoin="round"/>
<path d="M43.9492 40.9519C43.9492 40.9519 44.3991 43.9477 47.1628 43.0837C50.0726 42.1737 49.2971 39.4258 49.2971 39.4258C49.2971 39.4258 49.8675 42.1571 52.9427 41.2739C56.1935 40.3409 54.5617 37.6953 54.5617 37.6953" stroke="#3F0F23" stroke-linecap="round" stroke-linejoin="round"/>
<path d="M49.405 38.7406C51.4831 38.1827 52.8825 36.674 52.5305 35.3708C52.1786 34.0676 50.2086 33.4634 48.1305 34.0213C46.0523 34.5792 44.653 36.0879 45.0049 37.3911C45.3568 38.6944 47.3268 39.2985 49.405 38.7406Z" fill="#3F0F23"/>
<path d="M29.8804 80.313C29.8804 80.313 35.5949 86.0107 38.4521 85.6043Z" fill="white"/>
<path d="M29.8804 80.313C29.8804 80.313 35.5949 86.0107 38.4521 85.6043" stroke="#3F0F23" stroke-linecap="round" stroke-linejoin="round"/>
<path d="M23.7588 32.3297C23.7588 32.3297 37.7387 23.4394 45.9028 33.2065Z" fill="white"/>
<path d="M23.7588 32.3297C23.7588 32.3297 37.7387 23.4394 45.9028 33.2065" stroke="#3F0F23" stroke-linecap="round" stroke-linejoin="round"/>
<path d="M50.1895 32.1881C50.1895 32.1881 52.9365 21.4228 70.3389 24.3636Z" fill="white"/>
<path d="M50.1895 32.1881C50.1895 32.1881 52.9365 21.4228 70.3389 24.3636" stroke="#3F0F23" stroke-linecap="round" stroke-linejoin="round"/>
<path d="M81.311 29.8479C81.311 29.8479 85.8014 30.2543 86.209 37.3771Z" fill="white"/>
<path d="M81.311 29.8479C81.311 29.8479 85.8014 30.2543 86.209 37.3771" stroke="#3F0F23" stroke-linecap="round" stroke-linejoin="round"/>
<path d="M84.8829 68.2056C84.8829 68.2056 87.6479 73.6413 82.2859 76.3163Z" fill="white"/>
<path d="M84.8829 68.2056C84.8829 68.2056 87.6479 73.6413 82.2859 76.3163" stroke="#3F0F23" stroke-linecap="round" stroke-linejoin="round"/>
<path d="M30.3913 47.4976C32.9356 47.0767 34.7815 45.4338 34.5143 43.828C34.2471 42.2222 31.968 41.2616 29.4237 41.6825C26.8794 42.1034 25.0335 43.7463 25.3007 45.3521C25.5679 46.9579 27.847 47.9184 30.3913 47.4976Z" fill="#F4BAD2"/>
<path d="M70.3928 38.9546C72.9371 38.5337 74.783 36.8908 74.5158 35.285C74.2486 33.6792 71.9695 32.7187 69.4252 33.1396C66.8809 33.5604 65.035 35.2034 65.3022 36.8091C65.5694 38.4149 67.8485 39.3755 70.3928 38.9546Z" fill="#F4BAD2"/>
<path d="M36.7061 42.0702C39.0728 42.0702 40.9914 40.1572 40.9914 37.7975C40.9914 35.4378 39.0728 33.5249 36.7061 33.5249C34.3395 33.5249 32.4209 35.4378 32.4209 37.7975C32.4209 40.1572 34.3395 42.0702 36.7061 42.0702Z" fill="#3F0F23"/>
<path d="M60.1764 36.7801C62.543 36.7801 64.4616 34.8672 64.4616 32.5075C64.4616 30.1478 62.543 28.2349 60.1764 28.2349C57.8097 28.2349 55.8911 30.1478 55.8911 32.5075C55.8911 34.8672 57.8097 36.7801 60.1764 36.7801Z" fill="#3F0F23"/>
<path d="M31.4735 43.8506L30.9902 45.7353" stroke="#3F0F23" stroke-width="0.3" stroke-linecap="round" stroke-linejoin="round"/>
<path d="M32.2919 43.8506L31.8074 45.7353" stroke="#3F0F23" stroke-width="0.3" stroke-linecap="round" stroke-linejoin="round"/>
<path d="M33.1073 43.8572L32.6228 45.7419" stroke="#3F0F23" stroke-width="0.3" stroke-linecap="round" stroke-linejoin="round"/>
<path d="M14.4441 44.0537C14.4441 44.0537 19.7241 49.8792 25.6642 49.8409Z" fill="white"/>
<path d="M14.4441 44.0537C14.4441 44.0537 19.7241 49.8792 25.6642 49.8409" stroke="#3F0F23" stroke-linecap="round" stroke-linejoin="round"/>
<path d="M75.3931 41.6394C75.3931 41.6394 82.5561 38.3777 84.3122 32.7209Z" fill="white"/>
<path d="M75.3931 41.6394C75.3931 41.6394 82.5561 38.3777 84.3122 32.7209" stroke="#3F0F23" stroke-linecap="round" stroke-linejoin="round"/>
<path d="M67.8014 36.5244L67.3169 38.4091" stroke="#3F0F23" stroke-width="0.3" stroke-linecap="round" stroke-linejoin="round"/>
<path d="M68.6183 36.5244L68.1338 38.4091" stroke="#3F0F23" stroke-width="0.3" stroke-linecap="round" stroke-linejoin="round"/>
<path d="M69.4355 36.7275L68.9509 38.6122" stroke="#3F0F23" stroke-width="0.3" stroke-linecap="round" stroke-linejoin="round"/>
<path d="M32.112 25.2721C33.5861 23.989 33.5677 21.563 32.0709 19.8534C30.5741 18.1438 28.1657 17.798 26.6916 19.0811C25.2175 20.3642 25.2359 22.7902 26.7327 24.4998C28.2295 26.2094 30.6379 26.5551 32.112 25.2721Z" fill="#BBEFBE"/>
<path d="M66.6945 17.597C67.5313 15.4865 66.7344 13.1942 64.9147 12.477C63.095 11.7597 60.9415 12.8891 60.1047 14.9995C59.2679 17.11 60.0648 19.4023 61.8845 20.1195C63.7043 20.8368 65.8578 19.7074 66.6945 17.597Z" fill="#BBEFBE"/>
<path d="M13.4681 48.9655C13.4681 48.9655 12.2439 43.471 16.938 40.4189" stroke="#3F0F23" stroke-linecap="round" stroke-linejoin="round"/>
</svg>
