<svg width="90" height="98" viewBox="0 0 90 98" fill="none" xmlns="http://www.w3.org/2000/svg">
<path d="M17.7137 31.5578C17.7744 31.3539 17.7413 31.1275 17.6206 30.9619C16.6696 29.6497 12.6697 23.7121 15.7545 20.7181C18.8581 17.7047 24.278 19.1923 25.4151 19.5495C25.5526 19.5933 25.6985 19.5696 25.8211 19.4853C27.098 18.6047 34.3966 13.706 38.5245 13.8333C38.7512 13.8408 38.9573 13.6916 39.0447 13.4507C39.6278 11.8542 42.1056 6.12242 47.7444 5.63326C47.7444 5.63326 50.9073 4.70548 51.5142 15.3773C51.5273 15.6116 51.6526 15.8178 51.8409 15.907C53.0727 16.4929 57.7022 18.8841 59.7461 22.6138C59.8979 22.8915 60.2049 22.9915 60.4566 22.8383C61.4345 22.2448 63.7102 20.9127 64.4297 20.9351C64.6028 20.9408 64.767 20.8549 64.8718 20.6969C65.2619 20.1067 66.156 19.0166 67.5178 18.8582C68.1906 18.7804 68.8415 19.1628 69.1908 19.8303C69.2687 19.9797 69.3968 20.0846 69.5444 20.1218L69.8156 20.1894C70.2726 20.3038 70.6675 20.6329 70.9045 21.0973L71.0776 21.4373C71.1988 21.6746 71.4396 21.7946 71.6732 21.7336C72.0316 21.64 72.3831 21.9034 72.4513 22.3204C72.6537 23.5603 72.7048 26.0828 70.332 27.8202C70.2103 27.9094 70.1217 28.0462 70.0899 28.2072C69.6764 30.2935 66.8895 44.6747 68.2963 47.1057C68.3102 47.1307 68.3226 47.1536 68.3326 47.1811C68.5651 47.8189 71.614 56.0158 75.0885 57.1848C75.1321 57.1995 75.1764 57.2062 75.2217 57.2062C75.5892 57.2107 77.4206 57.277 78.7603 58.1599C79.736 58.8022 80.0043 60.2912 79.3621 61.356C79.2896 61.4768 79.2549 61.623 79.2655 61.7691L79.2913 62.1319C79.3277 62.6577 79.1386 63.1707 78.7856 63.5057L78.6776 63.6071C78.5287 63.7478 78.4551 63.9668 78.4813 64.1872L78.4893 64.2569C78.6428 65.5187 77.9917 66.7281 76.9427 67.1261C76.057 67.4619 75.0696 67.6662 74.5551 67.2064C74.4043 67.0721 74.1996 67.0498 74.0209 67.1252C72.4861 67.7636 66.1247 70.2343 59.5704 70.2261C59.4799 70.2262 59.4461 70.3656 59.5271 70.415C62.0723 72.0042 65.3007 72.5701 67.4725 73.143C71.26 74.1427 72.2947 75.7437 72.8569 78.6916C73.2411 80.7028 72.0879 83.293 66.3145 83.944C66.3145 83.944 59.4878 84.7917 55.5279 80.2121C55.5279 80.2121 52.4027 76.6524 51.3362 73.9602C51.1953 73.6052 50.8112 73.4875 50.5333 73.7089C49.2433 74.7417 46.1687 77.28 45.6414 78.4049C45.6335 78.4226 45.6241 78.4381 45.6139 78.4552C45.3516 78.8605 41.8433 84.2242 39.597 84.8121L39.5948 84.8127C39.4205 84.8582 39.2725 84.9922 39.1934 85.1773C38.8271 86.0447 37.7195 88.435 36.3748 89.1426C36.0272 89.3261 35.623 89.1169 35.4867 88.7046L35.447 88.5831C35.3406 88.2596 35.0276 88.0946 34.7452 88.2127L34.3571 88.3741C34.0988 88.482 33.8105 88.3797 33.6493 88.1228L33.4041 87.7324C33.2493 87.4855 32.9634 87.4009 32.7231 87.5315L32.4707 87.6693C31.9668 87.9445 31.3608 87.7567 31.054 87.2192C30.4157 86.1049 29.6809 84.0599 30.9945 81.7974C31.0715 81.665 31.1075 81.508 31.0889 81.3496C30.8617 79.3772 29.1492 66.1539 23.8568 62.916C23.8518 62.9134 23.8478 62.9105 23.8428 62.9079C23.5365 62.7424 12.7952 56.9511 11.2993 55.2773C11.1675 55.1302 10.9864 55.0665 10.806 55.1044C10.0596 55.2628 8.17335 55.28 6.71188 52.0394C6.45416 51.4694 6.67697 50.7649 7.19414 50.5228C7.46784 50.3951 7.60515 50.0394 7.50484 49.7182C7.32261 49.1351 7.46168 48.4824 7.85723 48.0645L8.01194 47.9013C8.15711 47.7472 8.22026 47.5152 8.17666 47.2929C7.99057 46.3439 8.4372 45.3785 9.22745 45.0402C10.0542 44.6859 11.1988 44.4641 12.4597 44.9967C12.5534 45.0362 12.6533 45.0493 12.7511 45.0289L16.5828 44.2282C16.6435 45.1838 15.2151 39.9536 17.715 31.5588L17.7137 31.5578Z" fill="white" stroke="#552929" stroke-width="0.5" stroke-linecap="round" stroke-linejoin="round"/>
<path d="M7.52338 53.6946C6.82338 53.6946 6.27005 53.9046 5.86338 54.3246C5.46338 54.7446 5.26338 55.3279 5.26338 56.0746C5.26338 56.8079 5.47338 57.3879 5.89338 57.8146C6.31338 58.2413 6.85671 58.4546 7.52338 58.4546C8.10338 58.4546 8.67671 58.2713 9.24338 57.9046L9.72338 59.1446C9.05671 59.5979 8.26671 59.8246 7.35338 59.8246C6.19338 59.8246 5.26338 59.4879 4.56338 58.8146C3.87005 58.1413 3.52338 57.2279 3.52338 56.0746C3.52338 54.9079 3.86005 53.9913 4.53338 53.3246C5.21338 52.6579 6.15338 52.3246 7.35338 52.3246C8.26671 52.3246 9.05671 52.5513 9.72338 53.0046L9.24338 54.2446C8.67671 53.8779 8.10338 53.6946 7.52338 53.6946ZM13.096 54.4246C13.9294 54.4246 14.5227 54.5846 14.876 54.9046C15.236 55.2179 15.416 55.7346 15.416 56.4546V58.3246C15.416 58.8046 15.466 59.2713 15.566 59.7246H14.046C13.9927 59.4246 13.9594 59.1813 13.946 58.9946H13.926C13.746 59.2479 13.5027 59.4513 13.196 59.6046C12.896 59.7513 12.5794 59.8246 12.246 59.8246C11.746 59.8246 11.346 59.6846 11.046 59.4046C10.746 59.1246 10.596 58.7413 10.596 58.2546C10.596 57.6813 10.8394 57.2213 11.326 56.8746C11.8194 56.5279 12.526 56.3546 13.446 56.3546H13.816V56.3346C13.816 56.0413 13.756 55.8379 13.636 55.7246C13.5227 55.6113 13.3194 55.5546 13.026 55.5546C12.346 55.5546 11.696 55.7046 11.076 56.0046L10.866 54.8746C11.5394 54.5746 12.2827 54.4246 13.096 54.4246ZM12.056 58.1046C12.056 58.2846 12.1094 58.4246 12.216 58.5246C12.3294 58.6246 12.4794 58.6746 12.666 58.6746C12.9994 58.6746 13.2727 58.5713 13.486 58.3646C13.706 58.1579 13.816 57.8946 13.816 57.5746V57.3346H13.446C12.9927 57.3346 12.646 57.4046 12.406 57.5446C12.1727 57.6846 12.056 57.8713 12.056 58.1046ZM16.4859 55.8546V54.7246H17.6859V54.4046C17.6859 53.7246 17.8625 53.2079 18.2159 52.8546C18.5759 52.5013 19.0892 52.3246 19.7559 52.3246C20.1825 52.3246 20.5925 52.3746 20.9859 52.4746L20.7559 53.6746C20.5159 53.5746 20.2692 53.5246 20.0159 53.5246C19.7559 53.5246 19.5725 53.5879 19.4659 53.7146C19.3659 53.8413 19.3159 54.0713 19.3159 54.4046V54.7246H20.8859V55.8546H19.3159V59.7246H17.6859V55.8546H16.4859ZM23.0819 56.6646H25.1419C25.1352 55.8979 24.7952 55.5146 24.1219 55.5146C23.8152 55.5146 23.5719 55.6146 23.3919 55.8146C23.2119 56.0079 23.1086 56.2913 23.0819 56.6646ZM23.0919 57.6546C23.1386 57.9813 23.2752 58.2379 23.5019 58.4246C23.7352 58.6046 24.0352 58.6946 24.4019 58.6946C24.8952 58.6946 25.3786 58.5746 25.8519 58.3346L26.2019 59.4246C25.6086 59.6913 24.9586 59.8246 24.2519 59.8246C23.4252 59.8246 22.7586 59.5813 22.2519 59.0946C21.7519 58.6079 21.5019 57.9513 21.5019 57.1246C21.5019 56.2913 21.7352 55.6346 22.2019 55.1546C22.6686 54.6679 23.2952 54.4246 24.0819 54.4246C24.8886 54.4246 25.5152 54.6579 25.9619 55.1246C26.4086 55.5846 26.6319 56.2446 26.6319 57.1046C26.6319 57.3113 26.6186 57.4946 26.5919 57.6546H23.0919ZM34.4081 53.6946C33.7081 53.6946 33.1548 53.9046 32.7481 54.3246C32.3481 54.7446 32.1481 55.3279 32.1481 56.0746C32.1481 56.8079 32.3581 57.3879 32.7781 57.8146C33.1981 58.2413 33.7415 58.4546 34.4081 58.4546C34.9881 58.4546 35.5615 58.2713 36.1281 57.9046L36.6081 59.1446C35.9415 59.5979 35.1515 59.8246 34.2381 59.8246C33.0781 59.8246 32.1481 59.4879 31.4481 58.8146C30.7548 58.1413 30.4081 57.2279 30.4081 56.0746C30.4081 54.9079 30.7448 53.9913 31.4181 53.3246C32.0981 52.6579 33.0381 52.3246 34.2381 52.3246C35.1515 52.3246 35.9415 52.5513 36.6081 53.0046L36.1281 54.2446C35.5615 53.8779 34.9881 53.6946 34.4081 53.6946ZM39.9808 54.4246C40.8141 54.4246 41.4075 54.5846 41.7608 54.9046C42.1208 55.2179 42.3008 55.7346 42.3008 56.4546V58.3246C42.3008 58.8046 42.3508 59.2713 42.4508 59.7246H40.9308C40.8775 59.4246 40.8441 59.1813 40.8308 58.9946H40.8108C40.6308 59.2479 40.3875 59.4513 40.0808 59.6046C39.7808 59.7513 39.4641 59.8246 39.1308 59.8246C38.6308 59.8246 38.2308 59.6846 37.9308 59.4046C37.6308 59.1246 37.4808 58.7413 37.4808 58.2546C37.4808 57.6813 37.7241 57.2213 38.2108 56.8746C38.7041 56.5279 39.4108 56.3546 40.3308 56.3546H40.7008V56.3346C40.7008 56.0413 40.6408 55.8379 40.5208 55.7246C40.4075 55.6113 40.2041 55.5546 39.9108 55.5546C39.2308 55.5546 38.5808 55.7046 37.9608 56.0046L37.7508 54.8746C38.4241 54.5746 39.1675 54.4246 39.9808 54.4246ZM38.9408 58.1046C38.9408 58.2846 38.9941 58.4246 39.1008 58.5246C39.2141 58.6246 39.3641 58.6746 39.5508 58.6746C39.8841 58.6746 40.1575 58.5713 40.3708 58.3646C40.5908 58.1579 40.7008 57.8946 40.7008 57.5746V57.3346H40.3308C39.8775 57.3346 39.5308 57.4046 39.2908 57.5446C39.0575 57.6846 38.9408 57.8713 38.9408 58.1046ZM43.6683 54.5246H45.1183L45.1483 55.2246H45.1683C45.555 54.6913 46.0116 54.4246 46.5383 54.4246C46.8583 54.4246 47.1183 54.4846 47.3183 54.6046C47.5183 54.7246 47.6983 54.9313 47.8583 55.2246H47.8783C48.345 54.6913 48.8683 54.4246 49.4483 54.4246C50.015 54.4246 50.425 54.5813 50.6783 54.8946C50.9383 55.2079 51.0683 55.7413 51.0683 56.4946V59.7246H49.5283V56.7946C49.5283 56.3279 49.4816 56.0179 49.3883 55.8646C49.3016 55.7113 49.1383 55.6346 48.8983 55.6346C48.6916 55.6346 48.515 55.7446 48.3683 55.9646C48.2216 56.1779 48.1483 56.4546 48.1483 56.7946V59.7246H46.6083V56.7946C46.6083 56.3279 46.565 56.0179 46.4783 55.8646C46.3916 55.7113 46.2283 55.6346 45.9883 55.6346C45.7816 55.6346 45.605 55.7446 45.4583 55.9646C45.3116 56.1779 45.2383 56.4546 45.2383 56.7946V59.7246H43.6683V54.5246ZM55.9802 57.1246C55.9802 56.6379 55.8902 56.2713 55.7102 56.0246C55.5302 55.7779 55.2802 55.6546 54.9602 55.6546C54.6535 55.6546 54.4068 55.7813 54.2202 56.0346C54.0335 56.2813 53.9402 56.6279 53.9402 57.0746V57.1746C53.9402 57.6279 54.0335 57.9779 54.2202 58.2246C54.4068 58.4713 54.6535 58.5946 54.9602 58.5946C55.2602 58.5946 55.5035 58.4679 55.6902 58.2146C55.8835 57.9546 55.9802 57.5913 55.9802 57.1246ZM57.5102 57.1246C57.5102 57.9713 57.3168 58.6346 56.9302 59.1146C56.5435 59.5879 56.0468 59.8246 55.4402 59.8246C54.8335 59.8246 54.3402 59.5846 53.9602 59.1046H53.9402V61.9246H52.3402V54.5246H53.8202L53.8602 55.2446H53.8802C54.3002 54.6979 54.8202 54.4246 55.4402 54.4246C56.0735 54.4246 56.5768 54.6579 56.9502 55.1246C57.3235 55.5913 57.5102 56.2579 57.5102 57.1246ZM60.7816 54.4246C61.6149 54.4246 62.2082 54.5846 62.5616 54.9046C62.9216 55.2179 63.1016 55.7346 63.1016 56.4546V58.3246C63.1016 58.8046 63.1516 59.2713 63.2516 59.7246H61.7316C61.6782 59.4246 61.6449 59.1813 61.6316 58.9946H61.6116C61.4316 59.2479 61.1882 59.4513 60.8816 59.6046C60.5816 59.7513 60.2649 59.8246 59.9316 59.8246C59.4316 59.8246 59.0316 59.6846 58.7316 59.4046C58.4316 59.1246 58.2816 58.7413 58.2816 58.2546C58.2816 57.6813 58.5249 57.2213 59.0116 56.8746C59.5049 56.5279 60.2116 56.3546 61.1316 56.3546H61.5016V56.3346C61.5016 56.0413 61.4416 55.8379 61.3216 55.7246C61.2082 55.6113 61.0049 55.5546 60.7116 55.5546C60.0316 55.5546 59.3816 55.7046 58.7616 56.0046L58.5516 54.8746C59.2249 54.5746 59.9682 54.4246 60.7816 54.4246ZM59.7416 58.1046C59.7416 58.2846 59.7949 58.4246 59.9016 58.5246C60.0149 58.6246 60.1649 58.6746 60.3516 58.6746C60.6849 58.6746 60.9582 58.5713 61.1716 58.3646C61.3916 58.1579 61.5016 57.8946 61.5016 57.5746V57.3346H61.1316C60.6782 57.3346 60.3316 57.4046 60.0916 57.5446C59.8582 57.6846 59.7416 57.8713 59.7416 58.1046ZM64.4691 54.5246H65.9491L65.9891 55.2446H66.0091C66.2024 54.9913 66.4391 54.7913 66.7191 54.6446C67.0057 54.4979 67.2991 54.4246 67.5991 54.4246C68.2257 54.4246 68.6824 54.6079 68.9691 54.9746C69.2557 55.3413 69.3991 55.9679 69.3991 56.8546V59.7246H67.8191V57.0246C67.8191 56.4846 67.7624 56.1246 67.6491 55.9446C67.5357 55.7579 67.3357 55.6646 67.0491 55.6646C66.8024 55.6646 66.5757 55.7979 66.3691 56.0646C66.1691 56.3313 66.0691 56.6413 66.0691 56.9946V59.7246H64.4691V54.5246ZM71.9003 56.6646H73.9603C73.9536 55.8979 73.6136 55.5146 72.9403 55.5146C72.6336 55.5146 72.3903 55.6146 72.2103 55.8146C72.0303 56.0079 71.9269 56.2913 71.9003 56.6646ZM71.9103 57.6546C71.9569 57.9813 72.0936 58.2379 72.3203 58.4246C72.5536 58.6046 72.8536 58.6946 73.2203 58.6946C73.7136 58.6946 74.1969 58.5746 74.6703 58.3346L75.0203 59.4246C74.4269 59.6913 73.7769 59.8246 73.0703 59.8246C72.2436 59.8246 71.5769 59.5813 71.0703 59.0946C70.5703 58.6079 70.3203 57.9513 70.3203 57.1246C70.3203 56.2913 70.5536 55.6346 71.0203 55.1546C71.4869 54.6679 72.1136 54.4246 72.9003 54.4246C73.7069 54.4246 74.3336 54.6579 74.7803 55.1246C75.2269 55.5846 75.4503 56.2446 75.4503 57.1046C75.4503 57.3113 75.4369 57.4946 75.4103 57.6546H71.9103ZM76.721 59.7246V52.2246H78.411V59.7246H76.721ZM80.0316 59.7246V52.2246H81.7216V59.7246H80.0316ZM85.5374 54.4246C86.3708 54.4246 86.9641 54.5846 87.3174 54.9046C87.6774 55.2179 87.8574 55.7346 87.8574 56.4546V58.3246C87.8574 58.8046 87.9074 59.2713 88.0074 59.7246H86.4874C86.4341 59.4246 86.4008 59.1813 86.3874 58.9946H86.3674C86.1874 59.2479 85.9441 59.4513 85.6374 59.6046C85.3374 59.7513 85.0208 59.8246 84.6874 59.8246C84.1874 59.8246 83.7874 59.6846 83.4874 59.4046C83.1874 59.1246 83.0374 58.7413 83.0374 58.2546C83.0374 57.6813 83.2808 57.2213 83.7674 56.8746C84.2608 56.5279 84.9674 56.3546 85.8874 56.3546H86.2574V56.3346C86.2574 56.0413 86.1974 55.8379 86.0774 55.7246C85.9641 55.6113 85.7608 55.5546 85.4674 55.5546C84.7874 55.5546 84.1374 55.7046 83.5174 56.0046L83.3074 54.8746C83.9808 54.5746 84.7241 54.4246 85.5374 54.4246ZM84.4974 58.1046C84.4974 58.2846 84.5508 58.4246 84.6574 58.5246C84.7708 58.6246 84.9208 58.6746 85.1074 58.6746C85.4408 58.6746 85.7141 58.5713 85.9274 58.3646C86.1474 58.1579 86.2574 57.8946 86.2574 57.5746V57.3346H85.8874C85.4341 57.3346 85.0874 57.4046 84.8474 57.5446C84.6141 57.6846 84.4974 57.8713 84.4974 58.1046Z" fill="#552929"/>
</svg>
