<svg width="90" height="98" viewBox="0 0 90 98" fill="none" xmlns="http://www.w3.org/2000/svg">
<path d="M17.927 31.5578C17.9878 31.3539 17.9547 31.1275 17.8339 30.9619C16.883 29.6497 12.8831 23.7121 15.9679 20.7181C19.0715 17.7047 24.4913 19.1923 25.6285 19.5495C25.766 19.5933 25.9119 19.5696 26.0345 19.4853C27.3114 18.6047 34.61 13.706 38.7379 13.8333C38.9645 13.8408 39.1707 13.6916 39.2581 13.4507C39.8412 11.8542 42.319 6.12242 47.9578 5.63326C47.9578 5.63326 51.1207 4.70548 51.7275 15.3773C51.7406 15.6116 51.866 15.8178 52.0543 15.907C53.286 16.4929 57.9156 18.8841 59.9595 22.6138C60.1113 22.8915 60.4183 22.9915 60.67 22.8383C61.6478 22.2448 63.9236 20.9127 64.6431 20.9351C64.8162 20.9408 64.9804 20.8549 65.0852 20.6969C65.4753 20.1067 66.3693 19.0166 67.7312 18.8582C68.4039 18.7804 69.0549 19.1628 69.4041 19.8303C69.4821 19.9797 69.6102 20.0846 69.7578 20.1218L70.029 20.1894C70.486 20.3038 70.8809 20.6329 71.1179 21.0973L71.291 21.4373C71.4122 21.6746 71.6529 21.7946 71.8865 21.7336C72.245 21.64 72.5965 21.9034 72.6647 22.3204C72.8671 23.5603 72.9181 26.0828 70.5454 27.8202C70.4237 27.9094 70.3351 28.0462 70.3033 28.2072C69.8897 30.2935 67.1028 44.6747 68.5096 47.1057C68.5236 47.1307 68.536 47.1536 68.5459 47.1811C68.7785 47.8189 71.8274 56.0158 75.3019 57.1848C75.3455 57.1995 75.3898 57.2062 75.435 57.2062C75.8026 57.2107 77.6339 57.277 78.9737 58.1599C79.9494 58.8022 80.2176 60.2912 79.5755 61.356C79.503 61.4768 79.4683 61.623 79.4788 61.7691L79.5047 62.1319C79.5411 62.6577 79.352 63.1707 78.999 63.5057L78.891 63.6071C78.7421 63.7478 78.6685 63.9668 78.6947 64.1872L78.7027 64.2569C78.8562 65.5187 78.2051 66.7281 77.1561 67.1261C76.2703 67.4619 75.283 67.6662 74.7685 67.2064C74.6177 67.0721 74.413 67.0498 74.2343 67.1252C72.6995 67.7636 66.3381 70.2343 59.7837 70.2261C59.6932 70.2262 59.6595 70.3656 59.7404 70.415C62.2857 72.0042 65.5141 72.5701 67.6858 73.143C71.4734 74.1427 72.5081 75.7437 73.0703 78.6916C73.4545 80.7028 72.3013 83.293 66.5279 83.944C66.5279 83.944 59.7012 84.7917 55.7412 80.2121C55.7412 80.2121 52.6161 76.6524 51.5496 73.9602C51.4087 73.6052 51.0246 73.4875 50.7467 73.7089C49.4567 74.7417 46.3821 77.28 45.8548 78.4049C45.8469 78.4226 45.8375 78.4381 45.8273 78.4552C45.565 78.8605 42.0566 84.2242 39.8104 84.8121L39.8082 84.8127C39.6338 84.8582 39.4858 84.9922 39.4067 85.1773C39.0405 86.0447 37.9329 88.435 36.5882 89.1426C36.2406 89.3261 35.8364 89.1169 35.7001 88.7046L35.6604 88.5831C35.554 88.2596 35.241 88.0946 34.9586 88.2127L34.5705 88.3741C34.3121 88.482 34.0239 88.3797 33.8626 88.1228L33.6175 87.7324C33.4627 87.4855 33.1768 87.4009 32.9365 87.5315L32.684 87.6693C32.1801 87.9445 31.5742 87.7567 31.2673 87.2192C30.629 86.1049 29.8943 84.0599 31.2079 81.7974C31.2849 81.665 31.3209 81.508 31.3023 81.3496C31.0751 79.3772 29.3625 66.1539 24.0702 62.916C24.0652 62.9134 24.0612 62.9105 24.0562 62.9079C23.7499 62.7424 13.0086 56.9511 11.5126 55.2773C11.3808 55.1302 11.1997 55.0665 11.0194 55.1044C10.273 55.2628 8.38673 55.28 6.92526 52.0394C6.66754 51.4694 6.89035 50.7649 7.40752 50.5228C7.68122 50.3951 7.81853 50.0394 7.71822 49.7182C7.53598 49.1351 7.67505 48.4824 8.07061 48.0645L8.22532 47.9013C8.37049 47.7472 8.43364 47.5152 8.39004 47.2929C8.20395 46.3439 8.65058 45.3785 9.44083 45.0402C10.2675 44.6859 11.4122 44.4641 12.673 44.9967C12.7668 45.0362 12.8667 45.0493 12.9645 45.0289L16.7962 44.2282C16.8569 45.1838 15.4285 39.9536 17.9284 31.5588L17.927 31.5578Z" fill="#BBEFBE"/>
<path d="M7.73676 53.6946C7.03676 53.6946 6.48342 53.9046 6.07676 54.3246C5.67676 54.7446 5.47676 55.3279 5.47676 56.0746C5.47676 56.8079 5.68676 57.3879 6.10676 57.8146C6.52676 58.2413 7.07009 58.4546 7.73676 58.4546C8.31676 58.4546 8.89009 58.2713 9.45676 57.9046L9.93676 59.1446C9.27009 59.5979 8.48009 59.8246 7.56676 59.8246C6.40676 59.8246 5.47676 59.4879 4.77676 58.8146C4.08342 58.1413 3.73676 57.2279 3.73676 56.0746C3.73676 54.9079 4.07342 53.9913 4.74676 53.3246C5.42676 52.6579 6.36676 52.3246 7.56676 52.3246C8.48009 52.3246 9.27009 52.5513 9.93676 53.0046L9.45676 54.2446C8.89009 53.8779 8.31676 53.6946 7.73676 53.6946ZM13.3094 54.4246C14.1427 54.4246 14.7361 54.5846 15.0894 54.9046C15.4494 55.2179 15.6294 55.7346 15.6294 56.4546V58.3246C15.6294 58.8046 15.6794 59.2713 15.7794 59.7246H14.2594C14.2061 59.4246 14.1727 59.1813 14.1594 58.9946H14.1394C13.9594 59.2479 13.7161 59.4513 13.4094 59.6046C13.1094 59.7513 12.7927 59.8246 12.4594 59.8246C11.9594 59.8246 11.5594 59.6846 11.2594 59.4046C10.9594 59.1246 10.8094 58.7413 10.8094 58.2546C10.8094 57.6813 11.0527 57.2213 11.5394 56.8746C12.0327 56.5279 12.7394 56.3546 13.6594 56.3546H14.0294V56.3346C14.0294 56.0413 13.9694 55.8379 13.8494 55.7246C13.7361 55.6113 13.5327 55.5546 13.2394 55.5546C12.5594 55.5546 11.9094 55.7046 11.2894 56.0046L11.0794 54.8746C11.7527 54.5746 12.4961 54.4246 13.3094 54.4246ZM12.2694 58.1046C12.2694 58.2846 12.3227 58.4246 12.4294 58.5246C12.5427 58.6246 12.6927 58.6746 12.8794 58.6746C13.2127 58.6746 13.4861 58.5713 13.6994 58.3646C13.9194 58.1579 14.0294 57.8946 14.0294 57.5746V57.3346H13.6594C13.2061 57.3346 12.8594 57.4046 12.6194 57.5446C12.3861 57.6846 12.2694 57.8713 12.2694 58.1046ZM16.6993 55.8546V54.7246H17.8993V54.4046C17.8993 53.7246 18.0759 53.2079 18.4293 52.8546C18.7893 52.5013 19.3026 52.3246 19.9693 52.3246C20.3959 52.3246 20.8059 52.3746 21.1993 52.4746L20.9693 53.6746C20.7293 53.5746 20.4826 53.5246 20.2293 53.5246C19.9693 53.5246 19.7859 53.5879 19.6793 53.7146C19.5793 53.8413 19.5293 54.0713 19.5293 54.4046V54.7246H21.0993V55.8546H19.5293V59.7246H17.8993V55.8546H16.6993ZM23.2953 56.6646H25.3553C25.3486 55.8979 25.0086 55.5146 24.3353 55.5146C24.0286 55.5146 23.7853 55.6146 23.6053 55.8146C23.4253 56.0079 23.3219 56.2913 23.2953 56.6646ZM23.3053 57.6546C23.3519 57.9813 23.4886 58.2379 23.7153 58.4246C23.9486 58.6046 24.2486 58.6946 24.6153 58.6946C25.1086 58.6946 25.5919 58.5746 26.0653 58.3346L26.4153 59.4246C25.8219 59.6913 25.1719 59.8246 24.4653 59.8246C23.6386 59.8246 22.9719 59.5813 22.4653 59.0946C21.9653 58.6079 21.7153 57.9513 21.7153 57.1246C21.7153 56.2913 21.9486 55.6346 22.4153 55.1546C22.8819 54.6679 23.5086 54.4246 24.2953 54.4246C25.1019 54.4246 25.7286 54.6579 26.1753 55.1246C26.6219 55.5846 26.8453 56.2446 26.8453 57.1046C26.8453 57.3113 26.8319 57.4946 26.8053 57.6546H23.3053ZM34.6215 53.6946C33.9215 53.6946 33.3682 53.9046 32.9615 54.3246C32.5615 54.7446 32.3615 55.3279 32.3615 56.0746C32.3615 56.8079 32.5715 57.3879 32.9915 57.8146C33.4115 58.2413 33.9549 58.4546 34.6215 58.4546C35.2015 58.4546 35.7749 58.2713 36.3415 57.9046L36.8215 59.1446C36.1549 59.5979 35.3649 59.8246 34.4515 59.8246C33.2915 59.8246 32.3615 59.4879 31.6615 58.8146C30.9682 58.1413 30.6215 57.2279 30.6215 56.0746C30.6215 54.9079 30.9582 53.9913 31.6315 53.3246C32.3115 52.6579 33.2515 52.3246 34.4515 52.3246C35.3649 52.3246 36.1549 52.5513 36.8215 53.0046L36.3415 54.2446C35.7749 53.8779 35.2015 53.6946 34.6215 53.6946ZM40.1942 54.4246C41.0275 54.4246 41.6208 54.5846 41.9742 54.9046C42.3342 55.2179 42.5142 55.7346 42.5142 56.4546V58.3246C42.5142 58.8046 42.5642 59.2713 42.6642 59.7246H41.1442C41.0908 59.4246 41.0575 59.1813 41.0442 58.9946H41.0242C40.8442 59.2479 40.6008 59.4513 40.2942 59.6046C39.9942 59.7513 39.6775 59.8246 39.3442 59.8246C38.8442 59.8246 38.4442 59.6846 38.1442 59.4046C37.8442 59.1246 37.6942 58.7413 37.6942 58.2546C37.6942 57.6813 37.9375 57.2213 38.4242 56.8746C38.9175 56.5279 39.6242 56.3546 40.5442 56.3546H40.9142V56.3346C40.9142 56.0413 40.8542 55.8379 40.7342 55.7246C40.6208 55.6113 40.4175 55.5546 40.1242 55.5546C39.4442 55.5546 38.7942 55.7046 38.1742 56.0046L37.9642 54.8746C38.6375 54.5746 39.3808 54.4246 40.1942 54.4246ZM39.1542 58.1046C39.1542 58.2846 39.2075 58.4246 39.3142 58.5246C39.4275 58.6246 39.5775 58.6746 39.7642 58.6746C40.0975 58.6746 40.3708 58.5713 40.5842 58.3646C40.8042 58.1579 40.9142 57.8946 40.9142 57.5746V57.3346H40.5442C40.0908 57.3346 39.7442 57.4046 39.5042 57.5446C39.2708 57.6846 39.1542 57.8713 39.1542 58.1046ZM43.8817 54.5246H45.3317L45.3617 55.2246H45.3817C45.7683 54.6913 46.225 54.4246 46.7517 54.4246C47.0717 54.4246 47.3317 54.4846 47.5317 54.6046C47.7317 54.7246 47.9117 54.9313 48.0717 55.2246H48.0917C48.5583 54.6913 49.0817 54.4246 49.6617 54.4246C50.2283 54.4246 50.6383 54.5813 50.8917 54.8946C51.1517 55.2079 51.2817 55.7413 51.2817 56.4946V59.7246H49.7417V56.7946C49.7417 56.3279 49.695 56.0179 49.6017 55.8646C49.515 55.7113 49.3517 55.6346 49.1117 55.6346C48.905 55.6346 48.7283 55.7446 48.5817 55.9646C48.435 56.1779 48.3617 56.4546 48.3617 56.7946V59.7246H46.8217V56.7946C46.8217 56.3279 46.7783 56.0179 46.6917 55.8646C46.605 55.7113 46.4417 55.6346 46.2017 55.6346C45.995 55.6346 45.8183 55.7446 45.6717 55.9646C45.525 56.1779 45.4517 56.4546 45.4517 56.7946V59.7246H43.8817V54.5246ZM56.1936 57.1246C56.1936 56.6379 56.1036 56.2713 55.9236 56.0246C55.7436 55.7779 55.4936 55.6546 55.1736 55.6546C54.8669 55.6546 54.6202 55.7813 54.4336 56.0346C54.2469 56.2813 54.1536 56.6279 54.1536 57.0746V57.1746C54.1536 57.6279 54.2469 57.9779 54.4336 58.2246C54.6202 58.4713 54.8669 58.5946 55.1736 58.5946C55.4736 58.5946 55.7169 58.4679 55.9036 58.2146C56.0969 57.9546 56.1936 57.5913 56.1936 57.1246ZM57.7236 57.1246C57.7236 57.9713 57.5302 58.6346 57.1436 59.1146C56.7569 59.5879 56.2602 59.8246 55.6536 59.8246C55.0469 59.8246 54.5536 59.5846 54.1736 59.1046H54.1536V61.9246H52.5536V54.5246H54.0336L54.0736 55.2446H54.0936C54.5136 54.6979 55.0336 54.4246 55.6536 54.4246C56.2869 54.4246 56.7902 54.6579 57.1636 55.1246C57.5369 55.5913 57.7236 56.2579 57.7236 57.1246ZM60.995 54.4246C61.8283 54.4246 62.4216 54.5846 62.775 54.9046C63.135 55.2179 63.315 55.7346 63.315 56.4546V58.3246C63.315 58.8046 63.365 59.2713 63.465 59.7246H61.945C61.8916 59.4246 61.8583 59.1813 61.845 58.9946H61.825C61.645 59.2479 61.4016 59.4513 61.095 59.6046C60.795 59.7513 60.4783 59.8246 60.145 59.8246C59.645 59.8246 59.245 59.6846 58.945 59.4046C58.645 59.1246 58.495 58.7413 58.495 58.2546C58.495 57.6813 58.7383 57.2213 59.225 56.8746C59.7183 56.5279 60.425 56.3546 61.345 56.3546H61.715V56.3346C61.715 56.0413 61.655 55.8379 61.535 55.7246C61.4216 55.6113 61.2183 55.5546 60.925 55.5546C60.245 55.5546 59.595 55.7046 58.975 56.0046L58.765 54.8746C59.4383 54.5746 60.1816 54.4246 60.995 54.4246ZM59.955 58.1046C59.955 58.2846 60.0083 58.4246 60.115 58.5246C60.2283 58.6246 60.3783 58.6746 60.565 58.6746C60.8983 58.6746 61.1716 58.5713 61.385 58.3646C61.605 58.1579 61.715 57.8946 61.715 57.5746V57.3346H61.345C60.8916 57.3346 60.545 57.4046 60.305 57.5446C60.0716 57.6846 59.955 57.8713 59.955 58.1046ZM64.6825 54.5246H66.1625L66.2025 55.2446H66.2225C66.4158 54.9913 66.6525 54.7913 66.9325 54.6446C67.2191 54.4979 67.5125 54.4246 67.8125 54.4246C68.4391 54.4246 68.8958 54.6079 69.1825 54.9746C69.4691 55.3413 69.6125 55.9679 69.6125 56.8546V59.7246H68.0325V57.0246C68.0325 56.4846 67.9758 56.1246 67.8625 55.9446C67.7491 55.7579 67.5491 55.6646 67.2625 55.6646C67.0158 55.6646 66.7891 55.7979 66.5825 56.0646C66.3825 56.3313 66.2825 56.6413 66.2825 56.9946V59.7246H64.6825V54.5246ZM72.1136 56.6646H74.1736C74.167 55.8979 73.827 55.5146 73.1536 55.5146C72.847 55.5146 72.6036 55.6146 72.4236 55.8146C72.2436 56.0079 72.1403 56.2913 72.1136 56.6646ZM72.1236 57.6546C72.1703 57.9813 72.307 58.2379 72.5336 58.4246C72.767 58.6046 73.067 58.6946 73.4336 58.6946C73.927 58.6946 74.4103 58.5746 74.8836 58.3346L75.2336 59.4246C74.6403 59.6913 73.9903 59.8246 73.2836 59.8246C72.457 59.8246 71.7903 59.5813 71.2836 59.0946C70.7836 58.6079 70.5336 57.9513 70.5336 57.1246C70.5336 56.2913 70.767 55.6346 71.2336 55.1546C71.7003 54.6679 72.327 54.4246 73.1136 54.4246C73.9203 54.4246 74.547 54.6579 74.9936 55.1246C75.4403 55.5846 75.6636 56.2446 75.6636 57.1046C75.6636 57.3113 75.6503 57.4946 75.6236 57.6546H72.1236ZM76.9344 59.7246V52.2246H78.6244V59.7246H76.9344ZM80.245 59.7246V52.2246H81.935V59.7246H80.245ZM85.7508 54.4246C86.5842 54.4246 87.1775 54.5846 87.5308 54.9046C87.8908 55.2179 88.0708 55.7346 88.0708 56.4546V58.3246C88.0708 58.8046 88.1208 59.2713 88.2208 59.7246H86.7008C86.6475 59.4246 86.6142 59.1813 86.6008 58.9946H86.5808C86.4008 59.2479 86.1575 59.4513 85.8508 59.6046C85.5508 59.7513 85.2342 59.8246 84.9008 59.8246C84.4008 59.8246 84.0008 59.6846 83.7008 59.4046C83.4008 59.1246 83.2508 58.7413 83.2508 58.2546C83.2508 57.6813 83.4942 57.2213 83.9808 56.8746C84.4742 56.5279 85.1808 56.3546 86.1008 56.3546H86.4708V56.3346C86.4708 56.0413 86.4108 55.8379 86.2908 55.7246C86.1775 55.6113 85.9742 55.5546 85.6808 55.5546C85.0008 55.5546 84.3508 55.7046 83.7308 56.0046L83.5208 54.8746C84.1942 54.5746 84.9375 54.4246 85.7508 54.4246ZM84.7108 58.1046C84.7108 58.2846 84.7642 58.4246 84.8708 58.5246C84.9842 58.6246 85.1342 58.6746 85.3208 58.6746C85.6542 58.6746 85.9275 58.5713 86.1408 58.3646C86.3608 58.1579 86.4708 57.8946 86.4708 57.5746V57.3346H86.1008C85.6475 57.3346 85.3008 57.4046 85.0608 57.5446C84.8275 57.6846 84.7108 57.8713 84.7108 58.1046Z" fill="#552929"/>
</svg>
