<svg width="90" height="98" viewBox="0 0 90 98" fill="none" xmlns="http://www.w3.org/2000/svg">
<path d="M18.1404 31.5578C18.2011 31.3539 18.1681 31.1275 18.0473 30.9619C17.0964 29.6497 13.0965 23.7121 16.1813 20.7181C19.2849 17.7047 24.7047 19.1923 25.8418 19.5495C25.9794 19.5933 26.1252 19.5696 26.2479 19.4853C27.5248 18.6047 34.8233 13.706 38.9513 13.8333C39.1779 13.8408 39.384 13.6916 39.4715 13.4507C40.0546 11.8542 42.5324 6.12242 48.1711 5.63326C48.1711 5.63326 51.3341 4.70548 51.9409 15.3773C51.954 15.6116 52.0793 15.8178 52.2677 15.907C53.4994 16.4929 58.129 18.8841 60.1729 22.6138C60.3247 22.8915 60.6317 22.9915 60.8834 22.8383C61.8612 22.2448 64.137 20.9127 64.8565 20.9351C65.0296 20.9408 65.1938 20.8549 65.2986 20.6969C65.6887 20.1067 66.5827 19.0166 67.9446 18.8582C68.6173 18.7804 69.2682 19.1628 69.6175 19.8303C69.6955 19.9797 69.8235 20.0846 69.9711 20.1218L70.2424 20.1894C70.6993 20.3038 71.0943 20.6329 71.3313 21.0973L71.5043 21.4373C71.6256 21.6746 71.8663 21.7946 72.0999 21.7336C72.4584 21.64 72.8099 21.9034 72.8781 22.3204C73.0805 23.5603 73.1315 26.0828 70.7587 27.8202C70.6371 27.9094 70.5484 28.0462 70.5167 28.2072C70.1031 30.2935 67.3162 44.6747 68.723 47.1057C68.737 47.1307 68.7494 47.1536 68.7593 47.1811C68.9919 47.8189 72.0408 56.0158 75.5152 57.1848C75.5589 57.1995 75.6032 57.2062 75.6484 57.2062C76.0159 57.2107 77.8473 57.277 79.1871 58.1599C80.1628 58.8022 80.431 60.2912 79.7889 61.356C79.7164 61.4768 79.6817 61.623 79.6922 61.7691L79.7181 62.1319C79.7544 62.6577 79.5654 63.1707 79.2124 63.5057L79.1044 63.6071C78.9555 63.7478 78.8819 63.9668 78.9081 64.1872L78.9161 64.2569C79.0696 65.5187 78.4185 66.7281 77.3695 67.1261C76.4837 67.4619 75.4963 67.6662 74.9818 67.2064C74.831 67.0721 74.6264 67.0498 74.4477 67.1252C72.9129 67.7636 66.5515 70.2343 59.9971 70.2261C59.9066 70.2262 59.8728 70.3656 59.9538 70.415C62.4991 72.0042 65.7275 72.5701 67.8992 73.143C71.6868 74.1427 72.7215 75.7437 73.2837 78.6916C73.6679 80.7028 72.5147 83.293 66.7413 83.944C66.7413 83.944 59.9146 84.7917 55.9546 80.2121C55.9546 80.2121 52.8295 76.6524 51.7629 73.9602C51.6221 73.6052 51.238 73.4875 50.9601 73.7089C49.6701 74.7417 46.5955 77.28 46.0681 78.4049C46.0603 78.4226 46.0509 78.4381 46.0406 78.4552C45.7784 78.8605 42.27 84.2242 40.0237 84.8121L40.0216 84.8127C39.8472 84.8582 39.6992 84.9922 39.6201 85.1773C39.2538 86.0447 38.1463 88.435 36.8016 89.1426C36.454 89.3261 36.0497 89.1169 35.9134 88.7046L35.8738 88.5831C35.7673 88.2596 35.4544 88.0946 35.172 88.2127L34.7839 88.3741C34.5255 88.482 34.2373 88.3797 34.076 88.1228L33.8309 87.7324C33.6761 87.4855 33.3902 87.4009 33.1499 87.5315L32.8974 87.6693C32.3935 87.9445 31.7875 87.7567 31.4807 87.2192C30.8424 86.1049 30.1076 84.0599 31.4213 81.7974C31.4983 81.665 31.5343 81.508 31.5157 81.3496C31.2884 79.3772 29.5759 66.1539 24.2836 62.916C24.2785 62.9134 24.2746 62.9105 24.2695 62.9079C23.9632 62.7424 13.222 56.9511 11.726 55.2773C11.5942 55.1302 11.4131 55.0665 11.2327 55.1044C10.4864 55.2628 8.60011 55.28 7.13864 52.0394C6.88092 51.4694 7.10373 50.7649 7.62089 50.5228C7.8946 50.3951 8.03191 50.0394 7.9316 49.7182C7.74936 49.1351 7.88843 48.4824 8.28399 48.0645L8.4387 47.9013C8.58387 47.7472 8.64702 47.5152 8.60342 47.2929C8.41733 46.3439 8.86395 45.3785 9.65421 45.0402C10.4809 44.6859 11.6255 44.4641 12.8864 44.9967C12.9802 45.0362 13.08 45.0493 13.1779 45.0289L17.0096 44.2282C17.0702 45.1838 15.6418 39.9536 18.1417 31.5588L18.1404 31.5578Z" fill="white" stroke="#2F3336" stroke-width="0.5" stroke-linecap="round" stroke-linejoin="round"/>
<path d="M7.95014 53.6946C7.25014 53.6946 6.6968 53.9046 6.29014 54.3246C5.89014 54.7446 5.69014 55.3279 5.69014 56.0746C5.69014 56.8079 5.90014 57.3879 6.32014 57.8146C6.74014 58.2413 7.28347 58.4546 7.95014 58.4546C8.53014 58.4546 9.10347 58.2713 9.67014 57.9046L10.1501 59.1446C9.48347 59.5979 8.69347 59.8246 7.78014 59.8246C6.62014 59.8246 5.69014 59.4879 4.99014 58.8146C4.2968 58.1413 3.95014 57.2279 3.95014 56.0746C3.95014 54.9079 4.2868 53.9913 4.96014 53.3246C5.64014 52.6579 6.58014 52.3246 7.78014 52.3246C8.69347 52.3246 9.48347 52.5513 10.1501 53.0046L9.67014 54.2446C9.10347 53.8779 8.53014 53.6946 7.95014 53.6946ZM13.5228 54.4246C14.3561 54.4246 14.9495 54.5846 15.3028 54.9046C15.6628 55.2179 15.8428 55.7346 15.8428 56.4546V58.3246C15.8428 58.8046 15.8928 59.2713 15.9928 59.7246H14.4728C14.4195 59.4246 14.3861 59.1813 14.3728 58.9946H14.3528C14.1728 59.2479 13.9295 59.4513 13.6228 59.6046C13.3228 59.7513 13.0061 59.8246 12.6728 59.8246C12.1728 59.8246 11.7728 59.6846 11.4728 59.4046C11.1728 59.1246 11.0228 58.7413 11.0228 58.2546C11.0228 57.6813 11.2661 57.2213 11.7528 56.8746C12.2461 56.5279 12.9528 56.3546 13.8728 56.3546H14.2428V56.3346C14.2428 56.0413 14.1828 55.8379 14.0628 55.7246C13.9495 55.6113 13.7461 55.5546 13.4528 55.5546C12.7728 55.5546 12.1228 55.7046 11.5028 56.0046L11.2928 54.8746C11.9661 54.5746 12.7095 54.4246 13.5228 54.4246ZM12.4828 58.1046C12.4828 58.2846 12.5361 58.4246 12.6428 58.5246C12.7561 58.6246 12.9061 58.6746 13.0928 58.6746C13.4261 58.6746 13.6995 58.5713 13.9128 58.3646C14.1328 58.1579 14.2428 57.8946 14.2428 57.5746V57.3346H13.8728C13.4195 57.3346 13.0728 57.4046 12.8328 57.5446C12.5995 57.6846 12.4828 57.8713 12.4828 58.1046ZM16.9126 55.8546V54.7246H18.1126V54.4046C18.1126 53.7246 18.2893 53.2079 18.6426 52.8546C19.0026 52.5013 19.516 52.3246 20.1826 52.3246C20.6093 52.3246 21.0193 52.3746 21.4126 52.4746L21.1826 53.6746C20.9426 53.5746 20.696 53.5246 20.4426 53.5246C20.1826 53.5246 19.9993 53.5879 19.8926 53.7146C19.7926 53.8413 19.7426 54.0713 19.7426 54.4046V54.7246H21.3126V55.8546H19.7426V59.7246H18.1126V55.8546H16.9126ZM23.5087 56.6646H25.5687C25.562 55.8979 25.222 55.5146 24.5487 55.5146C24.242 55.5146 23.9987 55.6146 23.8187 55.8146C23.6387 56.0079 23.5353 56.2913 23.5087 56.6646ZM23.5187 57.6546C23.5653 57.9813 23.702 58.2379 23.9287 58.4246C24.162 58.6046 24.462 58.6946 24.8287 58.6946C25.322 58.6946 25.8053 58.5746 26.2787 58.3346L26.6287 59.4246C26.0353 59.6913 25.3853 59.8246 24.6787 59.8246C23.852 59.8246 23.1853 59.5813 22.6787 59.0946C22.1787 58.6079 21.9287 57.9513 21.9287 57.1246C21.9287 56.2913 22.162 55.6346 22.6287 55.1546C23.0953 54.6679 23.722 54.4246 24.5087 54.4246C25.3153 54.4246 25.942 54.6579 26.3887 55.1246C26.8353 55.5846 27.0587 56.2446 27.0587 57.1046C27.0587 57.3113 27.0453 57.4946 27.0187 57.6546H23.5187ZM34.8349 53.6946C34.1349 53.6946 33.5816 53.9046 33.1749 54.3246C32.7749 54.7446 32.5749 55.3279 32.5749 56.0746C32.5749 56.8079 32.7849 57.3879 33.2049 57.8146C33.6249 58.2413 34.1682 58.4546 34.8349 58.4546C35.4149 58.4546 35.9882 58.2713 36.5549 57.9046L37.0349 59.1446C36.3682 59.5979 35.5782 59.8246 34.6649 59.8246C33.5049 59.8246 32.5749 59.4879 31.8749 58.8146C31.1816 58.1413 30.8349 57.2279 30.8349 56.0746C30.8349 54.9079 31.1716 53.9913 31.8449 53.3246C32.5249 52.6579 33.4649 52.3246 34.6649 52.3246C35.5782 52.3246 36.3682 52.5513 37.0349 53.0046L36.5549 54.2446C35.9882 53.8779 35.4149 53.6946 34.8349 53.6946ZM40.4076 54.4246C41.2409 54.4246 41.8342 54.5846 42.1876 54.9046C42.5476 55.2179 42.7276 55.7346 42.7276 56.4546V58.3246C42.7276 58.8046 42.7776 59.2713 42.8776 59.7246H41.3576C41.3042 59.4246 41.2709 59.1813 41.2576 58.9946H41.2376C41.0576 59.2479 40.8142 59.4513 40.5076 59.6046C40.2076 59.7513 39.8909 59.8246 39.5576 59.8246C39.0576 59.8246 38.6576 59.6846 38.3576 59.4046C38.0576 59.1246 37.9076 58.7413 37.9076 58.2546C37.9076 57.6813 38.1509 57.2213 38.6376 56.8746C39.1309 56.5279 39.8376 56.3546 40.7576 56.3546H41.1276V56.3346C41.1276 56.0413 41.0676 55.8379 40.9476 55.7246C40.8342 55.6113 40.6309 55.5546 40.3376 55.5546C39.6576 55.5546 39.0076 55.7046 38.3876 56.0046L38.1776 54.8746C38.8509 54.5746 39.5942 54.4246 40.4076 54.4246ZM39.3676 58.1046C39.3676 58.2846 39.4209 58.4246 39.5276 58.5246C39.6409 58.6246 39.7909 58.6746 39.9776 58.6746C40.3109 58.6746 40.5842 58.5713 40.7976 58.3646C41.0176 58.1579 41.1276 57.8946 41.1276 57.5746V57.3346H40.7576C40.3042 57.3346 39.9576 57.4046 39.7176 57.5446C39.4842 57.6846 39.3676 57.8713 39.3676 58.1046ZM44.0951 54.5246H45.5451L45.5751 55.2246H45.5951C45.9817 54.6913 46.4384 54.4246 46.9651 54.4246C47.2851 54.4246 47.5451 54.4846 47.7451 54.6046C47.9451 54.7246 48.1251 54.9313 48.2851 55.2246H48.3051C48.7717 54.6913 49.2951 54.4246 49.8751 54.4246C50.4417 54.4246 50.8517 54.5813 51.1051 54.8946C51.3651 55.2079 51.4951 55.7413 51.4951 56.4946V59.7246H49.9551V56.7946C49.9551 56.3279 49.9084 56.0179 49.8151 55.8646C49.7284 55.7113 49.5651 55.6346 49.3251 55.6346C49.1184 55.6346 48.9417 55.7446 48.7951 55.9646C48.6484 56.1779 48.5751 56.4546 48.5751 56.7946V59.7246H47.0351V56.7946C47.0351 56.3279 46.9917 56.0179 46.9051 55.8646C46.8184 55.7113 46.6551 55.6346 46.4151 55.6346C46.2084 55.6346 46.0317 55.7446 45.8851 55.9646C45.7384 56.1779 45.6651 56.4546 45.6651 56.7946V59.7246H44.0951V54.5246ZM56.4069 57.1246C56.4069 56.6379 56.3169 56.2713 56.1369 56.0246C55.9569 55.7779 55.7069 55.6546 55.3869 55.6546C55.0803 55.6546 54.8336 55.7813 54.6469 56.0346C54.4603 56.2813 54.3669 56.6279 54.3669 57.0746V57.1746C54.3669 57.6279 54.4603 57.9779 54.6469 58.2246C54.8336 58.4713 55.0803 58.5946 55.3869 58.5946C55.6869 58.5946 55.9303 58.4679 56.1169 58.2146C56.3103 57.9546 56.4069 57.5913 56.4069 57.1246ZM57.9369 57.1246C57.9369 57.9713 57.7436 58.6346 57.3569 59.1146C56.9703 59.5879 56.4736 59.8246 55.8669 59.8246C55.2603 59.8246 54.7669 59.5846 54.3869 59.1046H54.3669V61.9246H52.7669V54.5246H54.2469L54.2869 55.2446H54.3069C54.7269 54.6979 55.2469 54.4246 55.8669 54.4246C56.5003 54.4246 57.0036 54.6579 57.3769 55.1246C57.7503 55.5913 57.9369 56.2579 57.9369 57.1246ZM61.2083 54.4246C62.0417 54.4246 62.635 54.5846 62.9883 54.9046C63.3483 55.2179 63.5283 55.7346 63.5283 56.4546V58.3246C63.5283 58.8046 63.5783 59.2713 63.6783 59.7246H62.1583C62.105 59.4246 62.0717 59.1813 62.0583 58.9946H62.0383C61.8583 59.2479 61.615 59.4513 61.3083 59.6046C61.0083 59.7513 60.6917 59.8246 60.3583 59.8246C59.8583 59.8246 59.4583 59.6846 59.1583 59.4046C58.8583 59.1246 58.7083 58.7413 58.7083 58.2546C58.7083 57.6813 58.9517 57.2213 59.4383 56.8746C59.9317 56.5279 60.6383 56.3546 61.5583 56.3546H61.9283V56.3346C61.9283 56.0413 61.8683 55.8379 61.7483 55.7246C61.635 55.6113 61.4317 55.5546 61.1383 55.5546C60.4583 55.5546 59.8083 55.7046 59.1883 56.0046L58.9783 54.8746C59.6517 54.5746 60.395 54.4246 61.2083 54.4246ZM60.1683 58.1046C60.1683 58.2846 60.2217 58.4246 60.3283 58.5246C60.4417 58.6246 60.5917 58.6746 60.7783 58.6746C61.1117 58.6746 61.385 58.5713 61.5983 58.3646C61.8183 58.1579 61.9283 57.8946 61.9283 57.5746V57.3346H61.5583C61.105 57.3346 60.7583 57.4046 60.5183 57.5446C60.285 57.6846 60.1683 57.8713 60.1683 58.1046ZM64.8958 54.5246H66.3758L66.4158 55.2446H66.4358C66.6292 54.9913 66.8658 54.7913 67.1458 54.6446C67.4325 54.4979 67.7258 54.4246 68.0258 54.4246C68.6525 54.4246 69.1092 54.6079 69.3958 54.9746C69.6825 55.3413 69.8258 55.9679 69.8258 56.8546V59.7246H68.2458V57.0246C68.2458 56.4846 68.1892 56.1246 68.0758 55.9446C67.9625 55.7579 67.7625 55.6646 67.4758 55.6646C67.2292 55.6646 67.0025 55.7979 66.7958 56.0646C66.5958 56.3313 66.4958 56.6413 66.4958 56.9946V59.7246H64.8958V54.5246ZM72.327 56.6646H74.387C74.3803 55.8979 74.0403 55.5146 73.367 55.5146C73.0603 55.5146 72.817 55.6146 72.637 55.8146C72.457 56.0079 72.3537 56.2913 72.327 56.6646ZM72.337 57.6546C72.3837 57.9813 72.5203 58.2379 72.747 58.4246C72.9803 58.6046 73.2803 58.6946 73.647 58.6946C74.1403 58.6946 74.6237 58.5746 75.097 58.3346L75.447 59.4246C74.8537 59.6913 74.2037 59.8246 73.497 59.8246C72.6703 59.8246 72.0037 59.5813 71.497 59.0946C70.997 58.6079 70.747 57.9513 70.747 57.1246C70.747 56.2913 70.9803 55.6346 71.447 55.1546C71.9137 54.6679 72.5403 54.4246 73.327 54.4246C74.1337 54.4246 74.7603 54.6579 75.207 55.1246C75.6537 55.5846 75.877 56.2446 75.877 57.1046C75.877 57.3113 75.8637 57.4946 75.837 57.6546H72.337ZM77.1478 59.7246V52.2246H78.8378V59.7246H77.1478ZM80.4583 59.7246V52.2246H82.1483V59.7246H80.4583ZM85.9642 54.4246C86.7975 54.4246 87.3909 54.5846 87.7442 54.9046C88.1042 55.2179 88.2842 55.7346 88.2842 56.4546V58.3246C88.2842 58.8046 88.3342 59.2713 88.4342 59.7246H86.9142C86.8609 59.4246 86.8275 59.1813 86.8142 58.9946H86.7942C86.6142 59.2479 86.3709 59.4513 86.0642 59.6046C85.7642 59.7513 85.4475 59.8246 85.1142 59.8246C84.6142 59.8246 84.2142 59.6846 83.9142 59.4046C83.6142 59.1246 83.4642 58.7413 83.4642 58.2546C83.4642 57.6813 83.7075 57.2213 84.1942 56.8746C84.6875 56.5279 85.3942 56.3546 86.3142 56.3546H86.6842V56.3346C86.6842 56.0413 86.6242 55.8379 86.5042 55.7246C86.3909 55.6113 86.1875 55.5546 85.8942 55.5546C85.2142 55.5546 84.5642 55.7046 83.9442 56.0046L83.7342 54.8746C84.4075 54.5746 85.1509 54.4246 85.9642 54.4246ZM84.9242 58.1046C84.9242 58.2846 84.9775 58.4246 85.0842 58.5246C85.1975 58.6246 85.3475 58.6746 85.5342 58.6746C85.8675 58.6746 86.1409 58.5713 86.3542 58.3646C86.5742 58.1579 86.6842 57.8946 86.6842 57.5746V57.3346H86.3142C85.8609 57.3346 85.5142 57.4046 85.2742 57.5446C85.0409 57.6846 84.9242 57.8713 84.9242 58.1046Z" fill="#CA475C"/>
</svg>
