<svg width="90" height="98" viewBox="0 0 90 98" fill="none" xmlns="http://www.w3.org/2000/svg">
<path d="M17.7137 31.3683C17.7744 31.1645 17.7413 30.938 17.6206 30.7724C16.6696 29.4603 12.6697 23.5226 15.7545 20.5286C18.8581 17.5153 24.278 19.0028 25.4151 19.3601C25.5526 19.4038 25.6985 19.3801 25.8211 19.2958C27.098 18.4153 34.3966 13.5165 38.5245 13.6439C38.7512 13.6513 38.9573 13.5022 39.0447 13.2613C39.6278 11.6648 42.1056 5.93297 47.7444 5.44381C47.7444 5.44381 50.9073 4.51603 51.5142 15.1879C51.5273 15.4221 51.6526 15.6283 51.8409 15.7176C53.0727 16.3035 57.7022 18.6947 59.7461 22.4244C59.8979 22.7021 60.2049 22.8021 60.4566 22.6489C61.4345 22.0553 63.7102 20.7233 64.4297 20.7456C64.6028 20.7514 64.767 20.6654 64.8718 20.5074C65.2619 19.9172 66.156 18.8272 67.5178 18.6687C68.1906 18.591 68.8415 18.9734 69.1908 19.6408C69.2687 19.7902 69.3968 19.8952 69.5444 19.9324L69.8156 20C70.2726 20.1144 70.6675 20.4435 70.9045 20.9078L71.0776 21.2479C71.1988 21.4852 71.4396 21.6051 71.6732 21.5441C72.0316 21.4505 72.3831 21.7139 72.4513 22.131C72.6537 23.3708 72.7048 25.8934 70.332 27.6307C70.2103 27.72 70.1217 27.8567 70.0899 28.0178C69.6764 30.1041 66.8895 44.4852 68.2963 46.9162C68.3102 46.9413 68.3226 46.9642 68.3326 46.9916C68.5651 47.6295 71.614 55.8264 75.0885 56.9953C75.1321 57.0101 75.1764 57.0168 75.2217 57.0167C75.5892 57.0213 77.4206 57.0876 78.7603 57.9704C79.736 58.6127 80.0043 60.1018 79.3621 61.1666C79.2896 61.2873 79.2549 61.4335 79.2655 61.5796L79.2913 61.9424C79.3277 62.4683 79.1386 62.9812 78.7856 63.3163L78.6776 63.4176C78.5287 63.5583 78.4551 63.7774 78.4813 63.9977L78.4893 64.0674C78.6428 65.3292 77.9917 66.5387 76.9427 66.9366C76.057 67.2724 75.0696 67.4767 74.5551 67.0169C74.4043 66.8826 74.1996 66.8603 74.0209 66.9357C72.4861 67.5741 66.1247 70.0449 59.5704 70.0366C59.4799 70.0368 59.4461 70.1762 59.5271 70.2255C62.0723 71.8147 65.3007 72.3807 67.4725 72.9535C71.26 73.9532 72.2947 75.5542 72.8569 78.5022C73.2411 80.5133 72.0879 83.1035 66.3145 83.7545C66.3145 83.7545 59.4878 84.6022 55.5279 80.0226C55.5279 80.0226 52.4027 76.4629 51.3362 73.7707C51.1953 73.4158 50.8112 73.298 50.5333 73.5194C49.2433 74.5523 46.1687 77.0906 45.6414 78.2155C45.6335 78.2332 45.6241 78.2487 45.6139 78.2657C45.3516 78.6711 41.8433 84.0348 39.597 84.6226L39.5948 84.6232C39.4205 84.6687 39.2725 84.8027 39.1934 84.9879C38.8271 85.8553 37.7195 88.2455 36.3748 88.9531C36.0272 89.1366 35.623 88.9275 35.4867 88.5152L35.447 88.3937C35.3406 88.0702 35.0276 87.9051 34.7452 88.0232L34.3571 88.1847C34.0988 88.2926 33.8105 88.1903 33.6493 87.9334L33.4041 87.543C33.2493 87.2961 32.9634 87.2114 32.7231 87.3421L32.4707 87.4798C31.9668 87.7551 31.3608 87.5673 31.054 87.0297C30.4157 85.9154 29.6809 83.8705 30.9945 81.6079C31.0715 81.4755 31.1075 81.3185 31.0889 81.1602C30.8617 79.1877 29.1492 65.9645 23.8568 62.7265C23.8518 62.7239 23.8478 62.721 23.8428 62.7184C23.5365 62.5529 12.7952 56.7617 11.2993 55.0878C11.1675 54.9407 10.9864 54.877 10.806 54.915C10.0596 55.0733 8.17335 55.0906 6.71188 51.8499C6.45416 51.28 6.67697 50.5754 7.19414 50.3333C7.46784 50.2057 7.60515 49.8499 7.50484 49.5288C7.32261 48.9456 7.46168 48.293 7.85723 47.875L8.01194 47.7119C8.15711 47.5577 8.22026 47.3258 8.17666 47.1034C7.99057 46.1544 8.4372 45.189 9.22745 44.8508C10.0542 44.4965 11.1988 44.2746 12.4597 44.8072C12.5534 44.8467 12.6533 44.8598 12.7511 44.8395L16.5828 44.0387C16.6435 44.9944 15.2151 39.7642 17.715 31.3693L17.7137 31.3683Z" fill="#EDCCBC"/>
<path d="M7.52338 53.5052C6.82338 53.5052 6.27005 53.7152 5.86338 54.1352C5.46338 54.5552 5.26338 55.1385 5.26338 55.8852C5.26338 56.6185 5.47338 57.1985 5.89338 57.6252C6.31338 58.0518 6.85671 58.2652 7.52338 58.2652C8.10338 58.2652 8.67671 58.0818 9.24338 57.7152L9.72338 58.9552C9.05671 59.4085 8.26671 59.6352 7.35338 59.6352C6.19338 59.6352 5.26338 59.2985 4.56338 58.6252C3.87005 57.9518 3.52338 57.0385 3.52338 55.8852C3.52338 54.7185 3.86005 53.8018 4.53338 53.1352C5.21338 52.4685 6.15338 52.1352 7.35338 52.1352C8.26671 52.1352 9.05671 52.3618 9.72338 52.8152L9.24338 54.0552C8.67671 53.6885 8.10338 53.5052 7.52338 53.5052ZM13.096 54.2352C13.9294 54.2352 14.5227 54.3952 14.876 54.7152C15.236 55.0285 15.416 55.5452 15.416 56.2652V58.1352C15.416 58.6152 15.466 59.0818 15.566 59.5352H14.046C13.9927 59.2352 13.9594 58.9918 13.946 58.8052H13.926C13.746 59.0585 13.5027 59.2618 13.196 59.4152C12.896 59.5618 12.5794 59.6352 12.246 59.6352C11.746 59.6352 11.346 59.4952 11.046 59.2152C10.746 58.9352 10.596 58.5518 10.596 58.0652C10.596 57.4918 10.8394 57.0318 11.326 56.6852C11.8194 56.3385 12.526 56.1652 13.446 56.1652H13.816V56.1452C13.816 55.8518 13.756 55.6485 13.636 55.5352C13.5227 55.4218 13.3194 55.3652 13.026 55.3652C12.346 55.3652 11.696 55.5152 11.076 55.8152L10.866 54.6852C11.5394 54.3852 12.2827 54.2352 13.096 54.2352ZM12.056 57.9152C12.056 58.0952 12.1094 58.2352 12.216 58.3352C12.3294 58.4352 12.4794 58.4852 12.666 58.4852C12.9994 58.4852 13.2727 58.3818 13.486 58.1752C13.706 57.9685 13.816 57.7052 13.816 57.3852V57.1452H13.446C12.9927 57.1452 12.646 57.2152 12.406 57.3552C12.1727 57.4952 12.056 57.6818 12.056 57.9152ZM16.4859 55.6652V54.5352H17.6859V54.2152C17.6859 53.5352 17.8625 53.0185 18.2159 52.6652C18.5759 52.3118 19.0892 52.1352 19.7559 52.1352C20.1825 52.1352 20.5925 52.1852 20.9859 52.2852L20.7559 53.4852C20.5159 53.3852 20.2692 53.3352 20.0159 53.3352C19.7559 53.3352 19.5725 53.3985 19.4659 53.5252C19.3659 53.6518 19.3159 53.8818 19.3159 54.2152V54.5352H20.8859V55.6652H19.3159V59.5352H17.6859V55.6652H16.4859ZM23.0819 56.4752H25.1419C25.1352 55.7085 24.7952 55.3252 24.1219 55.3252C23.8152 55.3252 23.5719 55.4252 23.3919 55.6252C23.2119 55.8185 23.1086 56.1018 23.0819 56.4752ZM23.0919 57.4652C23.1386 57.7918 23.2752 58.0485 23.5019 58.2352C23.7352 58.4152 24.0352 58.5052 24.4019 58.5052C24.8952 58.5052 25.3786 58.3852 25.8519 58.1452L26.2019 59.2352C25.6086 59.5018 24.9586 59.6352 24.2519 59.6352C23.4252 59.6352 22.7586 59.3918 22.2519 58.9052C21.7519 58.4185 21.5019 57.7618 21.5019 56.9352C21.5019 56.1018 21.7352 55.4452 22.2019 54.9652C22.6686 54.4785 23.2952 54.2352 24.0819 54.2352C24.8886 54.2352 25.5152 54.4685 25.9619 54.9352C26.4086 55.3952 26.6319 56.0552 26.6319 56.9152C26.6319 57.1218 26.6186 57.3052 26.5919 57.4652H23.0919ZM34.4081 53.5052C33.7081 53.5052 33.1548 53.7152 32.7481 54.1352C32.3481 54.5552 32.1481 55.1385 32.1481 55.8852C32.1481 56.6185 32.3581 57.1985 32.7781 57.6252C33.1981 58.0518 33.7415 58.2652 34.4081 58.2652C34.9881 58.2652 35.5615 58.0818 36.1281 57.7152L36.6081 58.9552C35.9415 59.4085 35.1515 59.6352 34.2381 59.6352C33.0781 59.6352 32.1481 59.2985 31.4481 58.6252C30.7548 57.9518 30.4081 57.0385 30.4081 55.8852C30.4081 54.7185 30.7448 53.8018 31.4181 53.1352C32.0981 52.4685 33.0381 52.1352 34.2381 52.1352C35.1515 52.1352 35.9415 52.3618 36.6081 52.8152L36.1281 54.0552C35.5615 53.6885 34.9881 53.5052 34.4081 53.5052ZM39.9808 54.2352C40.8141 54.2352 41.4075 54.3952 41.7608 54.7152C42.1208 55.0285 42.3008 55.5452 42.3008 56.2652V58.1352C42.3008 58.6152 42.3508 59.0818 42.4508 59.5352H40.9308C40.8775 59.2352 40.8441 58.9918 40.8308 58.8052H40.8108C40.6308 59.0585 40.3875 59.2618 40.0808 59.4152C39.7808 59.5618 39.4641 59.6352 39.1308 59.6352C38.6308 59.6352 38.2308 59.4952 37.9308 59.2152C37.6308 58.9352 37.4808 58.5518 37.4808 58.0652C37.4808 57.4918 37.7241 57.0318 38.2108 56.6852C38.7041 56.3385 39.4108 56.1652 40.3308 56.1652H40.7008V56.1452C40.7008 55.8518 40.6408 55.6485 40.5208 55.5352C40.4075 55.4218 40.2041 55.3652 39.9108 55.3652C39.2308 55.3652 38.5808 55.5152 37.9608 55.8152L37.7508 54.6852C38.4241 54.3852 39.1675 54.2352 39.9808 54.2352ZM38.9408 57.9152C38.9408 58.0952 38.9941 58.2352 39.1008 58.3352C39.2141 58.4352 39.3641 58.4852 39.5508 58.4852C39.8841 58.4852 40.1575 58.3818 40.3708 58.1752C40.5908 57.9685 40.7008 57.7052 40.7008 57.3852V57.1452H40.3308C39.8775 57.1452 39.5308 57.2152 39.2908 57.3552C39.0575 57.4952 38.9408 57.6818 38.9408 57.9152ZM43.6683 54.3352H45.1183L45.1483 55.0352H45.1683C45.555 54.5018 46.0116 54.2352 46.5383 54.2352C46.8583 54.2352 47.1183 54.2952 47.3183 54.4152C47.5183 54.5352 47.6983 54.7418 47.8583 55.0352H47.8783C48.345 54.5018 48.8683 54.2352 49.4483 54.2352C50.015 54.2352 50.425 54.3918 50.6783 54.7052C50.9383 55.0185 51.0683 55.5518 51.0683 56.3052V59.5352H49.5283V56.6052C49.5283 56.1385 49.4816 55.8285 49.3883 55.6752C49.3016 55.5218 49.1383 55.4452 48.8983 55.4452C48.6916 55.4452 48.515 55.5552 48.3683 55.7752C48.2216 55.9885 48.1483 56.2652 48.1483 56.6052V59.5352H46.6083V56.6052C46.6083 56.1385 46.565 55.8285 46.4783 55.6752C46.3916 55.5218 46.2283 55.4452 45.9883 55.4452C45.7816 55.4452 45.605 55.5552 45.4583 55.7752C45.3116 55.9885 45.2383 56.2652 45.2383 56.6052V59.5352H43.6683V54.3352ZM55.9802 56.9352C55.9802 56.4485 55.8902 56.0818 55.7102 55.8352C55.5302 55.5885 55.2802 55.4652 54.9602 55.4652C54.6535 55.4652 54.4068 55.5918 54.2202 55.8452C54.0335 56.0918 53.9402 56.4385 53.9402 56.8852V56.9852C53.9402 57.4385 54.0335 57.7885 54.2202 58.0352C54.4068 58.2818 54.6535 58.4052 54.9602 58.4052C55.2602 58.4052 55.5035 58.2785 55.6902 58.0252C55.8835 57.7652 55.9802 57.4018 55.9802 56.9352ZM57.5102 56.9352C57.5102 57.7818 57.3168 58.4452 56.9302 58.9252C56.5435 59.3985 56.0468 59.6352 55.4402 59.6352C54.8335 59.6352 54.3402 59.3952 53.9602 58.9152H53.9402V61.7352H52.3402V54.3352H53.8202L53.8602 55.0552H53.8802C54.3002 54.5085 54.8202 54.2352 55.4402 54.2352C56.0735 54.2352 56.5768 54.4685 56.9502 54.9352C57.3235 55.4018 57.5102 56.0685 57.5102 56.9352ZM60.7816 54.2352C61.6149 54.2352 62.2082 54.3952 62.5616 54.7152C62.9216 55.0285 63.1016 55.5452 63.1016 56.2652V58.1352C63.1016 58.6152 63.1516 59.0818 63.2516 59.5352H61.7316C61.6782 59.2352 61.6449 58.9918 61.6316 58.8052H61.6116C61.4316 59.0585 61.1882 59.2618 60.8816 59.4152C60.5816 59.5618 60.2649 59.6352 59.9316 59.6352C59.4316 59.6352 59.0316 59.4952 58.7316 59.2152C58.4316 58.9352 58.2816 58.5518 58.2816 58.0652C58.2816 57.4918 58.5249 57.0318 59.0116 56.6852C59.5049 56.3385 60.2116 56.1652 61.1316 56.1652H61.5016V56.1452C61.5016 55.8518 61.4416 55.6485 61.3216 55.5352C61.2082 55.4218 61.0049 55.3652 60.7116 55.3652C60.0316 55.3652 59.3816 55.5152 58.7616 55.8152L58.5516 54.6852C59.2249 54.3852 59.9682 54.2352 60.7816 54.2352ZM59.7416 57.9152C59.7416 58.0952 59.7949 58.2352 59.9016 58.3352C60.0149 58.4352 60.1649 58.4852 60.3516 58.4852C60.6849 58.4852 60.9582 58.3818 61.1716 58.1752C61.3916 57.9685 61.5016 57.7052 61.5016 57.3852V57.1452H61.1316C60.6782 57.1452 60.3316 57.2152 60.0916 57.3552C59.8582 57.4952 59.7416 57.6818 59.7416 57.9152ZM64.4691 54.3352H65.9491L65.9891 55.0552H66.0091C66.2024 54.8018 66.4391 54.6018 66.7191 54.4552C67.0057 54.3085 67.2991 54.2352 67.5991 54.2352C68.2257 54.2352 68.6824 54.4185 68.9691 54.7852C69.2557 55.1518 69.3991 55.7785 69.3991 56.6652V59.5352H67.8191V56.8352C67.8191 56.2952 67.7624 55.9352 67.6491 55.7552C67.5357 55.5685 67.3357 55.4752 67.0491 55.4752C66.8024 55.4752 66.5757 55.6085 66.3691 55.8752C66.1691 56.1418 66.0691 56.4518 66.0691 56.8052V59.5352H64.4691V54.3352ZM71.9003 56.4752H73.9603C73.9536 55.7085 73.6136 55.3252 72.9403 55.3252C72.6336 55.3252 72.3903 55.4252 72.2103 55.6252C72.0303 55.8185 71.9269 56.1018 71.9003 56.4752ZM71.9103 57.4652C71.9569 57.7918 72.0936 58.0485 72.3203 58.2352C72.5536 58.4152 72.8536 58.5052 73.2203 58.5052C73.7136 58.5052 74.1969 58.3852 74.6703 58.1452L75.0203 59.2352C74.4269 59.5018 73.7769 59.6352 73.0703 59.6352C72.2436 59.6352 71.5769 59.3918 71.0703 58.9052C70.5703 58.4185 70.3203 57.7618 70.3203 56.9352C70.3203 56.1018 70.5536 55.4452 71.0203 54.9652C71.4869 54.4785 72.1136 54.2352 72.9003 54.2352C73.7069 54.2352 74.3336 54.4685 74.7803 54.9352C75.2269 55.3952 75.4503 56.0552 75.4503 56.9152C75.4503 57.1218 75.4369 57.3052 75.4103 57.4652H71.9103ZM76.721 59.5352V52.0352H78.411V59.5352H76.721ZM80.0316 59.5352V52.0352H81.7216V59.5352H80.0316ZM85.5374 54.2352C86.3708 54.2352 86.9641 54.3952 87.3174 54.7152C87.6774 55.0285 87.8574 55.5452 87.8574 56.2652V58.1352C87.8574 58.6152 87.9074 59.0818 88.0074 59.5352H86.4874C86.4341 59.2352 86.4008 58.9918 86.3874 58.8052H86.3674C86.1874 59.0585 85.9441 59.2618 85.6374 59.4152C85.3374 59.5618 85.0208 59.6352 84.6874 59.6352C84.1874 59.6352 83.7874 59.4952 83.4874 59.2152C83.1874 58.9352 83.0374 58.5518 83.0374 58.0652C83.0374 57.4918 83.2808 57.0318 83.7674 56.6852C84.2608 56.3385 84.9674 56.1652 85.8874 56.1652H86.2574V56.1452C86.2574 55.8518 86.1974 55.6485 86.0774 55.5352C85.9641 55.4218 85.7608 55.3652 85.4674 55.3652C84.7874 55.3652 84.1374 55.5152 83.5174 55.8152L83.3074 54.6852C83.9808 54.3852 84.7241 54.2352 85.5374 54.2352ZM84.4974 57.9152C84.4974 58.0952 84.5508 58.2352 84.6574 58.3352C84.7708 58.4352 84.9208 58.4852 85.1074 58.4852C85.4408 58.4852 85.7141 58.3818 85.9274 58.1752C86.1474 57.9685 86.2574 57.7052 86.2574 57.3852V57.1452H85.8874C85.4341 57.1452 85.0874 57.2152 84.8474 57.3552C84.6141 57.4952 84.4974 57.6818 84.4974 57.9152Z" fill="#F45998"/>
</svg>
