<svg width="90" height="98" viewBox="0 0 90 98" fill="none" xmlns="http://www.w3.org/2000/svg">
<path d="M18.1404 31.3683C18.2011 31.1645 18.1681 30.938 18.0473 30.7724C17.0964 29.4603 13.0965 23.5226 16.1813 20.5286C19.2849 17.5153 24.7047 19.0028 25.8418 19.3601C25.9794 19.4038 26.1252 19.3801 26.2479 19.2958C27.5248 18.4153 34.8233 13.5165 38.9513 13.6439C39.1779 13.6513 39.384 13.5022 39.4715 13.2613C40.0546 11.6648 42.5324 5.93297 48.1711 5.44381C48.1711 5.44381 51.3341 4.51603 51.9409 15.1879C51.954 15.4221 52.0793 15.6283 52.2677 15.7176C53.4994 16.3035 58.129 18.6947 60.1729 22.4244C60.3247 22.7021 60.6317 22.8021 60.8834 22.6489C61.8612 22.0553 64.137 20.7233 64.8565 20.7456C65.0296 20.7514 65.1938 20.6654 65.2986 20.5074C65.6887 19.9172 66.5827 18.8272 67.9446 18.6687C68.6173 18.591 69.2682 18.9734 69.6175 19.6408C69.6955 19.7902 69.8235 19.8952 69.9711 19.9324L70.2424 20C70.6993 20.1144 71.0943 20.4435 71.3313 20.9078L71.5043 21.2479C71.6256 21.4852 71.8663 21.6051 72.0999 21.5441C72.4584 21.4505 72.8099 21.7139 72.8781 22.131C73.0805 23.3708 73.1315 25.8934 70.7587 27.6307C70.6371 27.72 70.5484 27.8567 70.5167 28.0178C70.1031 30.1041 67.3162 44.4852 68.723 46.9162C68.737 46.9413 68.7494 46.9642 68.7593 46.9916C68.9919 47.6295 72.0408 55.8264 75.5152 56.9953C75.5589 57.0101 75.6032 57.0168 75.6484 57.0167C76.0159 57.0213 77.8473 57.0876 79.1871 57.9704C80.1628 58.6127 80.431 60.1018 79.7889 61.1666C79.7164 61.2873 79.6817 61.4335 79.6922 61.5796L79.7181 61.9424C79.7544 62.4683 79.5654 62.9812 79.2124 63.3163L79.1044 63.4176C78.9555 63.5583 78.8819 63.7774 78.9081 63.9977L78.9161 64.0674C79.0696 65.3292 78.4185 66.5387 77.3695 66.9366C76.4837 67.2724 75.4963 67.4767 74.9818 67.0169C74.831 66.8826 74.6264 66.8603 74.4477 66.9357C72.9129 67.5741 66.5515 70.0449 59.9971 70.0366C59.9066 70.0368 59.8728 70.1762 59.9538 70.2255C62.4991 71.8147 65.7275 72.3807 67.8992 72.9535C71.6868 73.9532 72.7215 75.5542 73.2837 78.5022C73.6679 80.5133 72.5147 83.1035 66.7413 83.7545C66.7413 83.7545 59.9146 84.6022 55.9546 80.0226C55.9546 80.0226 52.8295 76.4629 51.7629 73.7707C51.6221 73.4158 51.238 73.298 50.9601 73.5194C49.6701 74.5523 46.5955 77.0906 46.0681 78.2155C46.0603 78.2332 46.0509 78.2487 46.0406 78.2657C45.7784 78.6711 42.27 84.0348 40.0237 84.6226L40.0216 84.6232C39.8472 84.6687 39.6992 84.8027 39.6201 84.9879C39.2538 85.8553 38.1463 88.2455 36.8016 88.9531C36.454 89.1366 36.0497 88.9275 35.9134 88.5152L35.8738 88.3937C35.7673 88.0702 35.4544 87.9051 35.172 88.0232L34.7839 88.1847C34.5255 88.2926 34.2373 88.1903 34.076 87.9334L33.8309 87.543C33.6761 87.2961 33.3902 87.2114 33.1499 87.3421L32.8974 87.4798C32.3935 87.7551 31.7875 87.5673 31.4807 87.0297C30.8424 85.9154 30.1076 83.8705 31.4213 81.6079C31.4983 81.4755 31.5343 81.3185 31.5157 81.1602C31.2884 79.1877 29.5759 65.9645 24.2836 62.7265C24.2785 62.7239 24.2746 62.721 24.2695 62.7184C23.9632 62.5529 13.222 56.7617 11.726 55.0878C11.5942 54.9407 11.4131 54.877 11.2327 54.915C10.4864 55.0733 8.60011 55.0906 7.13864 51.8499C6.88092 51.28 7.10373 50.5754 7.62089 50.3333C7.8946 50.2057 8.03191 49.8499 7.9316 49.5288C7.74936 48.9456 7.88843 48.293 8.28399 47.875L8.4387 47.7119C8.58387 47.5577 8.64702 47.3258 8.60342 47.1034C8.41733 46.1544 8.86395 45.189 9.65421 44.8508C10.4809 44.4965 11.6255 44.2746 12.8864 44.8072C12.9802 44.8467 13.08 44.8598 13.1779 44.8395L17.0096 44.0387C17.0702 44.9944 15.6418 39.7642 18.1417 31.3693L18.1404 31.3683Z" fill="#FAD4E3"/>
<path d="M7.95014 53.5052C7.25014 53.5052 6.6968 53.7152 6.29014 54.1352C5.89014 54.5552 5.69014 55.1385 5.69014 55.8852C5.69014 56.6185 5.90014 57.1985 6.32014 57.6252C6.74014 58.0518 7.28347 58.2652 7.95014 58.2652C8.53014 58.2652 9.10347 58.0818 9.67014 57.7152L10.1501 58.9552C9.48347 59.4085 8.69347 59.6352 7.78014 59.6352C6.62014 59.6352 5.69014 59.2985 4.99014 58.6252C4.2968 57.9518 3.95014 57.0385 3.95014 55.8852C3.95014 54.7185 4.2868 53.8018 4.96014 53.1352C5.64014 52.4685 6.58014 52.1352 7.78014 52.1352C8.69347 52.1352 9.48347 52.3618 10.1501 52.8152L9.67014 54.0552C9.10347 53.6885 8.53014 53.5052 7.95014 53.5052ZM13.5228 54.2352C14.3561 54.2352 14.9495 54.3952 15.3028 54.7152C15.6628 55.0285 15.8428 55.5452 15.8428 56.2652V58.1352C15.8428 58.6152 15.8928 59.0818 15.9928 59.5352H14.4728C14.4195 59.2352 14.3861 58.9918 14.3728 58.8052H14.3528C14.1728 59.0585 13.9295 59.2618 13.6228 59.4152C13.3228 59.5618 13.0061 59.6352 12.6728 59.6352C12.1728 59.6352 11.7728 59.4952 11.4728 59.2152C11.1728 58.9352 11.0228 58.5518 11.0228 58.0652C11.0228 57.4918 11.2661 57.0318 11.7528 56.6852C12.2461 56.3385 12.9528 56.1652 13.8728 56.1652H14.2428V56.1452C14.2428 55.8518 14.1828 55.6485 14.0628 55.5352C13.9495 55.4218 13.7461 55.3652 13.4528 55.3652C12.7728 55.3652 12.1228 55.5152 11.5028 55.8152L11.2928 54.6852C11.9661 54.3852 12.7095 54.2352 13.5228 54.2352ZM12.4828 57.9152C12.4828 58.0952 12.5361 58.2352 12.6428 58.3352C12.7561 58.4352 12.9061 58.4852 13.0928 58.4852C13.4261 58.4852 13.6995 58.3818 13.9128 58.1752C14.1328 57.9685 14.2428 57.7052 14.2428 57.3852V57.1452H13.8728C13.4195 57.1452 13.0728 57.2152 12.8328 57.3552C12.5995 57.4952 12.4828 57.6818 12.4828 57.9152ZM16.9126 55.6652V54.5352H18.1126V54.2152C18.1126 53.5352 18.2893 53.0185 18.6426 52.6652C19.0026 52.3118 19.516 52.1352 20.1826 52.1352C20.6093 52.1352 21.0193 52.1852 21.4126 52.2852L21.1826 53.4852C20.9426 53.3852 20.696 53.3352 20.4426 53.3352C20.1826 53.3352 19.9993 53.3985 19.8926 53.5252C19.7926 53.6518 19.7426 53.8818 19.7426 54.2152V54.5352H21.3126V55.6652H19.7426V59.5352H18.1126V55.6652H16.9126ZM23.5087 56.4752H25.5687C25.562 55.7085 25.222 55.3252 24.5487 55.3252C24.242 55.3252 23.9987 55.4252 23.8187 55.6252C23.6387 55.8185 23.5353 56.1018 23.5087 56.4752ZM23.5187 57.4652C23.5653 57.7918 23.702 58.0485 23.9287 58.2352C24.162 58.4152 24.462 58.5052 24.8287 58.5052C25.322 58.5052 25.8053 58.3852 26.2787 58.1452L26.6287 59.2352C26.0353 59.5018 25.3853 59.6352 24.6787 59.6352C23.852 59.6352 23.1853 59.3918 22.6787 58.9052C22.1787 58.4185 21.9287 57.7618 21.9287 56.9352C21.9287 56.1018 22.162 55.4452 22.6287 54.9652C23.0953 54.4785 23.722 54.2352 24.5087 54.2352C25.3153 54.2352 25.942 54.4685 26.3887 54.9352C26.8353 55.3952 27.0587 56.0552 27.0587 56.9152C27.0587 57.1218 27.0453 57.3052 27.0187 57.4652H23.5187ZM34.8349 53.5052C34.1349 53.5052 33.5816 53.7152 33.1749 54.1352C32.7749 54.5552 32.5749 55.1385 32.5749 55.8852C32.5749 56.6185 32.7849 57.1985 33.2049 57.6252C33.6249 58.0518 34.1682 58.2652 34.8349 58.2652C35.4149 58.2652 35.9882 58.0818 36.5549 57.7152L37.0349 58.9552C36.3682 59.4085 35.5782 59.6352 34.6649 59.6352C33.5049 59.6352 32.5749 59.2985 31.8749 58.6252C31.1816 57.9518 30.8349 57.0385 30.8349 55.8852C30.8349 54.7185 31.1716 53.8018 31.8449 53.1352C32.5249 52.4685 33.4649 52.1352 34.6649 52.1352C35.5782 52.1352 36.3682 52.3618 37.0349 52.8152L36.5549 54.0552C35.9882 53.6885 35.4149 53.5052 34.8349 53.5052ZM40.4076 54.2352C41.2409 54.2352 41.8342 54.3952 42.1876 54.7152C42.5476 55.0285 42.7276 55.5452 42.7276 56.2652V58.1352C42.7276 58.6152 42.7776 59.0818 42.8776 59.5352H41.3576C41.3042 59.2352 41.2709 58.9918 41.2576 58.8052H41.2376C41.0576 59.0585 40.8142 59.2618 40.5076 59.4152C40.2076 59.5618 39.8909 59.6352 39.5576 59.6352C39.0576 59.6352 38.6576 59.4952 38.3576 59.2152C38.0576 58.9352 37.9076 58.5518 37.9076 58.0652C37.9076 57.4918 38.1509 57.0318 38.6376 56.6852C39.1309 56.3385 39.8376 56.1652 40.7576 56.1652H41.1276V56.1452C41.1276 55.8518 41.0676 55.6485 40.9476 55.5352C40.8342 55.4218 40.6309 55.3652 40.3376 55.3652C39.6576 55.3652 39.0076 55.5152 38.3876 55.8152L38.1776 54.6852C38.8509 54.3852 39.5942 54.2352 40.4076 54.2352ZM39.3676 57.9152C39.3676 58.0952 39.4209 58.2352 39.5276 58.3352C39.6409 58.4352 39.7909 58.4852 39.9776 58.4852C40.3109 58.4852 40.5842 58.3818 40.7976 58.1752C41.0176 57.9685 41.1276 57.7052 41.1276 57.3852V57.1452H40.7576C40.3042 57.1452 39.9576 57.2152 39.7176 57.3552C39.4842 57.4952 39.3676 57.6818 39.3676 57.9152ZM44.0951 54.3352H45.5451L45.5751 55.0352H45.5951C45.9817 54.5018 46.4384 54.2352 46.9651 54.2352C47.2851 54.2352 47.5451 54.2952 47.7451 54.4152C47.9451 54.5352 48.1251 54.7418 48.2851 55.0352H48.3051C48.7717 54.5018 49.2951 54.2352 49.8751 54.2352C50.4417 54.2352 50.8517 54.3918 51.1051 54.7052C51.3651 55.0185 51.4951 55.5518 51.4951 56.3052V59.5352H49.9551V56.6052C49.9551 56.1385 49.9084 55.8285 49.8151 55.6752C49.7284 55.5218 49.5651 55.4452 49.3251 55.4452C49.1184 55.4452 48.9417 55.5552 48.7951 55.7752C48.6484 55.9885 48.5751 56.2652 48.5751 56.6052V59.5352H47.0351V56.6052C47.0351 56.1385 46.9917 55.8285 46.9051 55.6752C46.8184 55.5218 46.6551 55.4452 46.4151 55.4452C46.2084 55.4452 46.0317 55.5552 45.8851 55.7752C45.7384 55.9885 45.6651 56.2652 45.6651 56.6052V59.5352H44.0951V54.3352ZM56.4069 56.9352C56.4069 56.4485 56.3169 56.0818 56.1369 55.8352C55.9569 55.5885 55.7069 55.4652 55.3869 55.4652C55.0803 55.4652 54.8336 55.5918 54.6469 55.8452C54.4603 56.0918 54.3669 56.4385 54.3669 56.8852V56.9852C54.3669 57.4385 54.4603 57.7885 54.6469 58.0352C54.8336 58.2818 55.0803 58.4052 55.3869 58.4052C55.6869 58.4052 55.9303 58.2785 56.1169 58.0252C56.3103 57.7652 56.4069 57.4018 56.4069 56.9352ZM57.9369 56.9352C57.9369 57.7818 57.7436 58.4452 57.3569 58.9252C56.9703 59.3985 56.4736 59.6352 55.8669 59.6352C55.2603 59.6352 54.7669 59.3952 54.3869 58.9152H54.3669V61.7352H52.7669V54.3352H54.2469L54.2869 55.0552H54.3069C54.7269 54.5085 55.2469 54.2352 55.8669 54.2352C56.5003 54.2352 57.0036 54.4685 57.3769 54.9352C57.7503 55.4018 57.9369 56.0685 57.9369 56.9352ZM61.2083 54.2352C62.0417 54.2352 62.635 54.3952 62.9883 54.7152C63.3483 55.0285 63.5283 55.5452 63.5283 56.2652V58.1352C63.5283 58.6152 63.5783 59.0818 63.6783 59.5352H62.1583C62.105 59.2352 62.0717 58.9918 62.0583 58.8052H62.0383C61.8583 59.0585 61.615 59.2618 61.3083 59.4152C61.0083 59.5618 60.6917 59.6352 60.3583 59.6352C59.8583 59.6352 59.4583 59.4952 59.1583 59.2152C58.8583 58.9352 58.7083 58.5518 58.7083 58.0652C58.7083 57.4918 58.9517 57.0318 59.4383 56.6852C59.9317 56.3385 60.6383 56.1652 61.5583 56.1652H61.9283V56.1452C61.9283 55.8518 61.8683 55.6485 61.7483 55.5352C61.635 55.4218 61.4317 55.3652 61.1383 55.3652C60.4583 55.3652 59.8083 55.5152 59.1883 55.8152L58.9783 54.6852C59.6517 54.3852 60.395 54.2352 61.2083 54.2352ZM60.1683 57.9152C60.1683 58.0952 60.2217 58.2352 60.3283 58.3352C60.4417 58.4352 60.5917 58.4852 60.7783 58.4852C61.1117 58.4852 61.385 58.3818 61.5983 58.1752C61.8183 57.9685 61.9283 57.7052 61.9283 57.3852V57.1452H61.5583C61.105 57.1452 60.7583 57.2152 60.5183 57.3552C60.285 57.4952 60.1683 57.6818 60.1683 57.9152ZM64.8958 54.3352H66.3758L66.4158 55.0552H66.4358C66.6292 54.8018 66.8658 54.6018 67.1458 54.4552C67.4325 54.3085 67.7258 54.2352 68.0258 54.2352C68.6525 54.2352 69.1092 54.4185 69.3958 54.7852C69.6825 55.1518 69.8258 55.7785 69.8258 56.6652V59.5352H68.2458V56.8352C68.2458 56.2952 68.1892 55.9352 68.0758 55.7552C67.9625 55.5685 67.7625 55.4752 67.4758 55.4752C67.2292 55.4752 67.0025 55.6085 66.7958 55.8752C66.5958 56.1418 66.4958 56.4518 66.4958 56.8052V59.5352H64.8958V54.3352ZM72.327 56.4752H74.387C74.3803 55.7085 74.0403 55.3252 73.367 55.3252C73.0603 55.3252 72.817 55.4252 72.637 55.6252C72.457 55.8185 72.3537 56.1018 72.327 56.4752ZM72.337 57.4652C72.3837 57.7918 72.5203 58.0485 72.747 58.2352C72.9803 58.4152 73.2803 58.5052 73.647 58.5052C74.1403 58.5052 74.6237 58.3852 75.097 58.1452L75.447 59.2352C74.8537 59.5018 74.2037 59.6352 73.497 59.6352C72.6703 59.6352 72.0037 59.3918 71.497 58.9052C70.997 58.4185 70.747 57.7618 70.747 56.9352C70.747 56.1018 70.9803 55.4452 71.447 54.9652C71.9137 54.4785 72.5403 54.2352 73.327 54.2352C74.1337 54.2352 74.7603 54.4685 75.207 54.9352C75.6537 55.3952 75.877 56.0552 75.877 56.9152C75.877 57.1218 75.8637 57.3052 75.837 57.4652H72.337ZM77.1478 59.5352V52.0352H78.8378V59.5352H77.1478ZM80.4583 59.5352V52.0352H82.1483V59.5352H80.4583ZM85.9642 54.2352C86.7975 54.2352 87.3909 54.3952 87.7442 54.7152C88.1042 55.0285 88.2842 55.5452 88.2842 56.2652V58.1352C88.2842 58.6152 88.3342 59.0818 88.4342 59.5352H86.9142C86.8609 59.2352 86.8275 58.9918 86.8142 58.8052H86.7942C86.6142 59.0585 86.3709 59.2618 86.0642 59.4152C85.7642 59.5618 85.4475 59.6352 85.1142 59.6352C84.6142 59.6352 84.2142 59.4952 83.9142 59.2152C83.6142 58.9352 83.4642 58.5518 83.4642 58.0652C83.4642 57.4918 83.7075 57.0318 84.1942 56.6852C84.6875 56.3385 85.3942 56.1652 86.3142 56.1652H86.6842V56.1452C86.6842 55.8518 86.6242 55.6485 86.5042 55.5352C86.3909 55.4218 86.1875 55.3652 85.8942 55.3652C85.2142 55.3652 84.5642 55.5152 83.9442 55.8152L83.7342 54.6852C84.4075 54.3852 85.1509 54.2352 85.9642 54.2352ZM84.9242 57.9152C84.9242 58.0952 84.9775 58.2352 85.0842 58.3352C85.1975 58.4352 85.3475 58.4852 85.5342 58.4852C85.8675 58.4852 86.1409 58.3818 86.3542 58.1752C86.5742 57.9685 86.6842 57.7052 86.6842 57.3852V57.1452H86.3142C85.8609 57.1452 85.5142 57.2152 85.2742 57.3552C85.0409 57.4952 84.9242 57.6818 84.9242 57.9152Z" fill="#CA475C"/>
</svg>
