<svg width="90" height="98" viewBox="0 0 90 98" fill="none" xmlns="http://www.w3.org/2000/svg">
<path d="M17.927 31.3683C17.9878 31.1645 17.9547 30.938 17.8339 30.7724C16.883 29.4603 12.8831 23.5226 15.9679 20.5286C19.0715 17.5153 24.4913 19.0028 25.6285 19.3601C25.766 19.4038 25.9119 19.3801 26.0345 19.2958C27.3114 18.4153 34.61 13.5165 38.7379 13.6439C38.9645 13.6513 39.1707 13.5022 39.2581 13.2613C39.8412 11.6648 42.319 5.93297 47.9578 5.44381C47.9578 5.44381 51.1207 4.51603 51.7275 15.1879C51.7406 15.4221 51.866 15.6283 52.0543 15.7176C53.286 16.3035 57.9156 18.6947 59.9595 22.4244C60.1113 22.7021 60.4183 22.8021 60.67 22.6489C61.6478 22.0553 63.9236 20.7233 64.6431 20.7456C64.8162 20.7514 64.9804 20.6654 65.0852 20.5074C65.4753 19.9172 66.3693 18.8272 67.7312 18.6687C68.4039 18.591 69.0549 18.9734 69.4041 19.6408C69.4821 19.7902 69.6102 19.8952 69.7578 19.9324L70.029 20C70.486 20.1144 70.8809 20.4435 71.1179 20.9078L71.291 21.2479C71.4122 21.4852 71.6529 21.6051 71.8865 21.5441C72.245 21.4505 72.5965 21.7139 72.6647 22.131C72.8671 23.3708 72.9181 25.8934 70.5454 27.6307C70.4237 27.72 70.3351 27.8567 70.3033 28.0178C69.8897 30.1041 67.1028 44.4852 68.5096 46.9162C68.5236 46.9413 68.536 46.9642 68.5459 46.9916C68.7785 47.6295 71.8274 55.8264 75.3019 56.9953C75.3455 57.0101 75.3898 57.0168 75.435 57.0167C75.8026 57.0213 77.6339 57.0876 78.9737 57.9704C79.9494 58.6127 80.2176 60.1018 79.5755 61.1666C79.503 61.2873 79.4683 61.4335 79.4788 61.5796L79.5047 61.9424C79.5411 62.4683 79.352 62.9812 78.999 63.3163L78.891 63.4176C78.7421 63.5583 78.6685 63.7774 78.6947 63.9977L78.7027 64.0674C78.8562 65.3292 78.2051 66.5387 77.1561 66.9366C76.2703 67.2724 75.283 67.4767 74.7685 67.0169C74.6177 66.8826 74.413 66.8603 74.2343 66.9357C72.6995 67.5741 66.3381 70.0449 59.7837 70.0366C59.6932 70.0368 59.6595 70.1762 59.7404 70.2255C62.2857 71.8147 65.5141 72.3807 67.6858 72.9535C71.4734 73.9532 72.5081 75.5542 73.0703 78.5022C73.4545 80.5133 72.3013 83.1035 66.5279 83.7545C66.5279 83.7545 59.7012 84.6022 55.7412 80.0226C55.7412 80.0226 52.6161 76.4629 51.5496 73.7707C51.4087 73.4158 51.0246 73.298 50.7467 73.5194C49.4567 74.5523 46.3821 77.0906 45.8548 78.2155C45.8469 78.2332 45.8375 78.2487 45.8273 78.2657C45.565 78.6711 42.0566 84.0348 39.8104 84.6226L39.8082 84.6232C39.6338 84.6687 39.4858 84.8027 39.4067 84.9879C39.0405 85.8553 37.9329 88.2455 36.5882 88.9531C36.2406 89.1366 35.8364 88.9275 35.7001 88.5152L35.6604 88.3937C35.554 88.0702 35.241 87.9051 34.9586 88.0232L34.5705 88.1847C34.3121 88.2926 34.0239 88.1903 33.8626 87.9334L33.6175 87.543C33.4627 87.2961 33.1768 87.2114 32.9365 87.3421L32.684 87.4798C32.1801 87.7551 31.5742 87.5673 31.2673 87.0297C30.629 85.9154 29.8943 83.8705 31.2079 81.6079C31.2849 81.4755 31.3209 81.3185 31.3023 81.1602C31.0751 79.1877 29.3625 65.9645 24.0702 62.7265C24.0652 62.7239 24.0612 62.721 24.0562 62.7184C23.7499 62.5529 13.0086 56.7617 11.5126 55.0878C11.3808 54.9407 11.1997 54.877 11.0194 54.915C10.273 55.0733 8.38673 55.0906 6.92526 51.8499C6.66754 51.28 6.89035 50.5754 7.40752 50.3333C7.68122 50.2057 7.81853 49.8499 7.71822 49.5288C7.53598 48.9456 7.67505 48.293 8.07061 47.875L8.22532 47.7119C8.37049 47.5577 8.43364 47.3258 8.39004 47.1034C8.20395 46.1544 8.65058 45.189 9.44083 44.8508C10.2675 44.4965 11.4122 44.2746 12.673 44.8072C12.7668 44.8467 12.8667 44.8598 12.9645 44.8395L16.7962 44.0387C16.8569 44.9944 15.4285 39.7642 17.9284 31.3693L17.927 31.3683Z" fill="#D8D8FB"/>
<path d="M7.73676 53.5052C7.03676 53.5052 6.48342 53.7152 6.07676 54.1352C5.67676 54.5552 5.47676 55.1385 5.47676 55.8852C5.47676 56.6185 5.68676 57.1985 6.10676 57.6252C6.52676 58.0518 7.07009 58.2652 7.73676 58.2652C8.31676 58.2652 8.89009 58.0818 9.45676 57.7152L9.93676 58.9552C9.27009 59.4085 8.48009 59.6352 7.56676 59.6352C6.40676 59.6352 5.47676 59.2985 4.77676 58.6252C4.08342 57.9518 3.73676 57.0385 3.73676 55.8852C3.73676 54.7185 4.07342 53.8018 4.74676 53.1352C5.42676 52.4685 6.36676 52.1352 7.56676 52.1352C8.48009 52.1352 9.27009 52.3618 9.93676 52.8152L9.45676 54.0552C8.89009 53.6885 8.31676 53.5052 7.73676 53.5052ZM13.3094 54.2352C14.1427 54.2352 14.7361 54.3952 15.0894 54.7152C15.4494 55.0285 15.6294 55.5452 15.6294 56.2652V58.1352C15.6294 58.6152 15.6794 59.0818 15.7794 59.5352H14.2594C14.2061 59.2352 14.1727 58.9918 14.1594 58.8052H14.1394C13.9594 59.0585 13.7161 59.2618 13.4094 59.4152C13.1094 59.5618 12.7927 59.6352 12.4594 59.6352C11.9594 59.6352 11.5594 59.4952 11.2594 59.2152C10.9594 58.9352 10.8094 58.5518 10.8094 58.0652C10.8094 57.4918 11.0527 57.0318 11.5394 56.6852C12.0327 56.3385 12.7394 56.1652 13.6594 56.1652H14.0294V56.1452C14.0294 55.8518 13.9694 55.6485 13.8494 55.5352C13.7361 55.4218 13.5327 55.3652 13.2394 55.3652C12.5594 55.3652 11.9094 55.5152 11.2894 55.8152L11.0794 54.6852C11.7527 54.3852 12.4961 54.2352 13.3094 54.2352ZM12.2694 57.9152C12.2694 58.0952 12.3227 58.2352 12.4294 58.3352C12.5427 58.4352 12.6927 58.4852 12.8794 58.4852C13.2127 58.4852 13.4861 58.3818 13.6994 58.1752C13.9194 57.9685 14.0294 57.7052 14.0294 57.3852V57.1452H13.6594C13.2061 57.1452 12.8594 57.2152 12.6194 57.3552C12.3861 57.4952 12.2694 57.6818 12.2694 57.9152ZM16.6993 55.6652V54.5352H17.8993V54.2152C17.8993 53.5352 18.0759 53.0185 18.4293 52.6652C18.7893 52.3118 19.3026 52.1352 19.9693 52.1352C20.3959 52.1352 20.8059 52.1852 21.1993 52.2852L20.9693 53.4852C20.7293 53.3852 20.4826 53.3352 20.2293 53.3352C19.9693 53.3352 19.7859 53.3985 19.6793 53.5252C19.5793 53.6518 19.5293 53.8818 19.5293 54.2152V54.5352H21.0993V55.6652H19.5293V59.5352H17.8993V55.6652H16.6993ZM23.2953 56.4752H25.3553C25.3486 55.7085 25.0086 55.3252 24.3353 55.3252C24.0286 55.3252 23.7853 55.4252 23.6053 55.6252C23.4253 55.8185 23.3219 56.1018 23.2953 56.4752ZM23.3053 57.4652C23.3519 57.7918 23.4886 58.0485 23.7153 58.2352C23.9486 58.4152 24.2486 58.5052 24.6153 58.5052C25.1086 58.5052 25.5919 58.3852 26.0653 58.1452L26.4153 59.2352C25.8219 59.5018 25.1719 59.6352 24.4653 59.6352C23.6386 59.6352 22.9719 59.3918 22.4653 58.9052C21.9653 58.4185 21.7153 57.7618 21.7153 56.9352C21.7153 56.1018 21.9486 55.4452 22.4153 54.9652C22.8819 54.4785 23.5086 54.2352 24.2953 54.2352C25.1019 54.2352 25.7286 54.4685 26.1753 54.9352C26.6219 55.3952 26.8453 56.0552 26.8453 56.9152C26.8453 57.1218 26.8319 57.3052 26.8053 57.4652H23.3053ZM34.6215 53.5052C33.9215 53.5052 33.3682 53.7152 32.9615 54.1352C32.5615 54.5552 32.3615 55.1385 32.3615 55.8852C32.3615 56.6185 32.5715 57.1985 32.9915 57.6252C33.4115 58.0518 33.9549 58.2652 34.6215 58.2652C35.2015 58.2652 35.7749 58.0818 36.3415 57.7152L36.8215 58.9552C36.1549 59.4085 35.3649 59.6352 34.4515 59.6352C33.2915 59.6352 32.3615 59.2985 31.6615 58.6252C30.9682 57.9518 30.6215 57.0385 30.6215 55.8852C30.6215 54.7185 30.9582 53.8018 31.6315 53.1352C32.3115 52.4685 33.2515 52.1352 34.4515 52.1352C35.3649 52.1352 36.1549 52.3618 36.8215 52.8152L36.3415 54.0552C35.7749 53.6885 35.2015 53.5052 34.6215 53.5052ZM40.1942 54.2352C41.0275 54.2352 41.6208 54.3952 41.9742 54.7152C42.3342 55.0285 42.5142 55.5452 42.5142 56.2652V58.1352C42.5142 58.6152 42.5642 59.0818 42.6642 59.5352H41.1442C41.0908 59.2352 41.0575 58.9918 41.0442 58.8052H41.0242C40.8442 59.0585 40.6008 59.2618 40.2942 59.4152C39.9942 59.5618 39.6775 59.6352 39.3442 59.6352C38.8442 59.6352 38.4442 59.4952 38.1442 59.2152C37.8442 58.9352 37.6942 58.5518 37.6942 58.0652C37.6942 57.4918 37.9375 57.0318 38.4242 56.6852C38.9175 56.3385 39.6242 56.1652 40.5442 56.1652H40.9142V56.1452C40.9142 55.8518 40.8542 55.6485 40.7342 55.5352C40.6208 55.4218 40.4175 55.3652 40.1242 55.3652C39.4442 55.3652 38.7942 55.5152 38.1742 55.8152L37.9642 54.6852C38.6375 54.3852 39.3808 54.2352 40.1942 54.2352ZM39.1542 57.9152C39.1542 58.0952 39.2075 58.2352 39.3142 58.3352C39.4275 58.4352 39.5775 58.4852 39.7642 58.4852C40.0975 58.4852 40.3708 58.3818 40.5842 58.1752C40.8042 57.9685 40.9142 57.7052 40.9142 57.3852V57.1452H40.5442C40.0908 57.1452 39.7442 57.2152 39.5042 57.3552C39.2708 57.4952 39.1542 57.6818 39.1542 57.9152ZM43.8817 54.3352H45.3317L45.3617 55.0352H45.3817C45.7683 54.5018 46.225 54.2352 46.7517 54.2352C47.0717 54.2352 47.3317 54.2952 47.5317 54.4152C47.7317 54.5352 47.9117 54.7418 48.0717 55.0352H48.0917C48.5583 54.5018 49.0817 54.2352 49.6617 54.2352C50.2283 54.2352 50.6383 54.3918 50.8917 54.7052C51.1517 55.0185 51.2817 55.5518 51.2817 56.3052V59.5352H49.7417V56.6052C49.7417 56.1385 49.695 55.8285 49.6017 55.6752C49.515 55.5218 49.3517 55.4452 49.1117 55.4452C48.905 55.4452 48.7283 55.5552 48.5817 55.7752C48.435 55.9885 48.3617 56.2652 48.3617 56.6052V59.5352H46.8217V56.6052C46.8217 56.1385 46.7783 55.8285 46.6917 55.6752C46.605 55.5218 46.4417 55.4452 46.2017 55.4452C45.995 55.4452 45.8183 55.5552 45.6717 55.7752C45.525 55.9885 45.4517 56.2652 45.4517 56.6052V59.5352H43.8817V54.3352ZM56.1936 56.9352C56.1936 56.4485 56.1036 56.0818 55.9236 55.8352C55.7436 55.5885 55.4936 55.4652 55.1736 55.4652C54.8669 55.4652 54.6202 55.5918 54.4336 55.8452C54.2469 56.0918 54.1536 56.4385 54.1536 56.8852V56.9852C54.1536 57.4385 54.2469 57.7885 54.4336 58.0352C54.6202 58.2818 54.8669 58.4052 55.1736 58.4052C55.4736 58.4052 55.7169 58.2785 55.9036 58.0252C56.0969 57.7652 56.1936 57.4018 56.1936 56.9352ZM57.7236 56.9352C57.7236 57.7818 57.5302 58.4452 57.1436 58.9252C56.7569 59.3985 56.2602 59.6352 55.6536 59.6352C55.0469 59.6352 54.5536 59.3952 54.1736 58.9152H54.1536V61.7352H52.5536V54.3352H54.0336L54.0736 55.0552H54.0936C54.5136 54.5085 55.0336 54.2352 55.6536 54.2352C56.2869 54.2352 56.7902 54.4685 57.1636 54.9352C57.5369 55.4018 57.7236 56.0685 57.7236 56.9352ZM60.995 54.2352C61.8283 54.2352 62.4216 54.3952 62.775 54.7152C63.135 55.0285 63.315 55.5452 63.315 56.2652V58.1352C63.315 58.6152 63.365 59.0818 63.465 59.5352H61.945C61.8916 59.2352 61.8583 58.9918 61.845 58.8052H61.825C61.645 59.0585 61.4016 59.2618 61.095 59.4152C60.795 59.5618 60.4783 59.6352 60.145 59.6352C59.645 59.6352 59.245 59.4952 58.945 59.2152C58.645 58.9352 58.495 58.5518 58.495 58.0652C58.495 57.4918 58.7383 57.0318 59.225 56.6852C59.7183 56.3385 60.425 56.1652 61.345 56.1652H61.715V56.1452C61.715 55.8518 61.655 55.6485 61.535 55.5352C61.4216 55.4218 61.2183 55.3652 60.925 55.3652C60.245 55.3652 59.595 55.5152 58.975 55.8152L58.765 54.6852C59.4383 54.3852 60.1816 54.2352 60.995 54.2352ZM59.955 57.9152C59.955 58.0952 60.0083 58.2352 60.115 58.3352C60.2283 58.4352 60.3783 58.4852 60.565 58.4852C60.8983 58.4852 61.1716 58.3818 61.385 58.1752C61.605 57.9685 61.715 57.7052 61.715 57.3852V57.1452H61.345C60.8916 57.1452 60.545 57.2152 60.305 57.3552C60.0716 57.4952 59.955 57.6818 59.955 57.9152ZM64.6825 54.3352H66.1625L66.2025 55.0552H66.2225C66.4158 54.8018 66.6525 54.6018 66.9325 54.4552C67.2191 54.3085 67.5125 54.2352 67.8125 54.2352C68.4391 54.2352 68.8958 54.4185 69.1825 54.7852C69.4691 55.1518 69.6125 55.7785 69.6125 56.6652V59.5352H68.0325V56.8352C68.0325 56.2952 67.9758 55.9352 67.8625 55.7552C67.7491 55.5685 67.5491 55.4752 67.2625 55.4752C67.0158 55.4752 66.7891 55.6085 66.5825 55.8752C66.3825 56.1418 66.2825 56.4518 66.2825 56.8052V59.5352H64.6825V54.3352ZM72.1136 56.4752H74.1736C74.167 55.7085 73.827 55.3252 73.1536 55.3252C72.847 55.3252 72.6036 55.4252 72.4236 55.6252C72.2436 55.8185 72.1403 56.1018 72.1136 56.4752ZM72.1236 57.4652C72.1703 57.7918 72.307 58.0485 72.5336 58.2352C72.767 58.4152 73.067 58.5052 73.4336 58.5052C73.927 58.5052 74.4103 58.3852 74.8836 58.1452L75.2336 59.2352C74.6403 59.5018 73.9903 59.6352 73.2836 59.6352C72.457 59.6352 71.7903 59.3918 71.2836 58.9052C70.7836 58.4185 70.5336 57.7618 70.5336 56.9352C70.5336 56.1018 70.767 55.4452 71.2336 54.9652C71.7003 54.4785 72.327 54.2352 73.1136 54.2352C73.9203 54.2352 74.547 54.4685 74.9936 54.9352C75.4403 55.3952 75.6636 56.0552 75.6636 56.9152C75.6636 57.1218 75.6503 57.3052 75.6236 57.4652H72.1236ZM76.9344 59.5352V52.0352H78.6244V59.5352H76.9344ZM80.245 59.5352V52.0352H81.935V59.5352H80.245ZM85.7508 54.2352C86.5842 54.2352 87.1775 54.3952 87.5308 54.7152C87.8908 55.0285 88.0708 55.5452 88.0708 56.2652V58.1352C88.0708 58.6152 88.1208 59.0818 88.2208 59.5352H86.7008C86.6475 59.2352 86.6142 58.9918 86.6008 58.8052H86.5808C86.4008 59.0585 86.1575 59.2618 85.8508 59.4152C85.5508 59.5618 85.2342 59.6352 84.9008 59.6352C84.4008 59.6352 84.0008 59.4952 83.7008 59.2152C83.4008 58.9352 83.2508 58.5518 83.2508 58.0652C83.2508 57.4918 83.4942 57.0318 83.9808 56.6852C84.4742 56.3385 85.1808 56.1652 86.1008 56.1652H86.4708V56.1452C86.4708 55.8518 86.4108 55.6485 86.2908 55.5352C86.1775 55.4218 85.9742 55.3652 85.6808 55.3652C85.0008 55.3652 84.3508 55.5152 83.7308 55.8152L83.5208 54.6852C84.1942 54.3852 84.9375 54.2352 85.7508 54.2352ZM84.7108 57.9152C84.7108 58.0952 84.7642 58.2352 84.8708 58.3352C84.9842 58.4352 85.1342 58.4852 85.3208 58.4852C85.6542 58.4852 85.9275 58.3818 86.1408 58.1752C86.3608 57.9685 86.4708 57.7052 86.4708 57.3852V57.1452H86.1008C85.6475 57.1452 85.3008 57.2152 85.0608 57.3552C84.8275 57.4952 84.7108 57.6818 84.7108 57.9152Z" fill="#552929"/>
</svg>
